<?xml version="1.0" encoding="UTF-8"?>
<!DOCTYPE svg PUBLIC "-//W3C//DTD SVG 1.1//EN" "http://www.w3.org/Graphics/SVG/1.1/DTD/svg11.dtd">
<svg xmlns="http://www.w3.org/2000/svg" version="1.1" width="1864px" height="2048px" style="shape-rendering:geometricPrecision; text-rendering:geometricPrecision; image-rendering:optimizeQuality; fill-rule:evenodd; clip-rule:evenodd" xmlns:xlink="http://www.w3.org/1999/xlink">
<g><path style="opacity:0.851" fill="#000000" d="M 1179.5,-0.5 C 1180.83,-0.5 1182.17,-0.5 1183.5,-0.5C 1183,8.50506 1181.17,17.1717 1178,25.5C 1174.72,32.5673 1171.55,39.734 1168.5,47C 1167.3,48.5199 1165.8,49.6866 1164,50.5C 1163.28,52.9494 1162.28,55.2827 1161,57.5C 1154.62,63.7323 1148.12,69.899 1141.5,76C 1134.53,79.1499 1127.53,82.3165 1120.5,85.5C 1115.15,85.7591 1109.82,85.2591 1104.5,84C 1099.7,81.0992 1094.7,78.4325 1089.5,76C 1082.05,68.5541 1074.55,61.0541 1067,53.5C 1066.69,52.2341 1066.19,51.0674 1065.5,50C 1061.4,46.9814 1057.4,43.8147 1053.5,40.5C 1051.57,39.4798 1049.57,39.3131 1047.5,40C 1038.37,49.3003 1032.87,60.467 1031,73.5C 1029.29,75.9562 1027.96,78.6229 1027,81.5C 1024.11,97.891 1020.94,113.891 1017.5,129.5C 1017.91,132.696 1018.91,135.696 1020.5,138.5C 1019.6,141.71 1017.43,143.377 1014,143.5C 1011.87,142.915 1010.37,141.582 1009.5,139.5C 1006.62,126.945 1007.62,114.445 1012.5,102C 1011.98,101.439 1011.64,100.772 1011.5,100C 1013.04,93.2361 1014.2,86.4028 1015,79.5C 1018.65,68.19 1022.32,56.8567 1026,45.5C 1029.8,39.6874 1033.64,33.8541 1037.5,28C 1045.99,23.7448 1054.66,23.4114 1063.5,27C 1068.1,31.3066 1073.1,35.1399 1078.5,38.5C 1079.78,40.1792 1080.78,42.0126 1081.5,44C 1086.06,45.2926 1089.23,48.126 1091,52.5C 1097.03,57.3991 1103.53,61.5657 1110.5,65C 1112.83,65.6667 1115.17,65.6667 1117.5,65C 1128.13,61.0335 1136.29,54.2002 1142,44.5C 1145.6,41.715 1148.94,38.715 1152,35.5C 1160.29,22.7221 1169.46,10.7221 1179.5,-0.5 Z"/></g>
<g><path style="opacity:0.82" fill="#000000" d="M 1403.5,43.5 C 1405.17,43.5 1406.83,43.5 1408.5,43.5C 1408.58,47.8967 1408.08,52.23 1407,56.5C 1403.95,66.1206 1400.95,76.1206 1398,86.5C 1392.43,96.4081 1386.43,106.075 1380,115.5C 1377.3,118.538 1374.3,121.205 1371,123.5C 1370.69,124.766 1370.19,125.933 1369.5,127C 1364.96,129.766 1360.62,132.766 1356.5,136C 1344.66,140.781 1332.99,140.448 1321.5,135C 1312.46,126.273 1305.79,115.939 1301.5,104C 1297.13,96.0874 1292.63,88.2541 1288,80.5C 1287,77.5 1286,74.5 1285,71.5C 1280.93,67.8811 1276.76,64.3811 1272.5,61C 1268.95,60.5417 1265.62,61.2084 1262.5,63C 1260.01,65.0803 1257.34,66.9136 1254.5,68.5C 1252.77,70.234 1251.43,72.234 1250.5,74.5C 1244.66,77.8194 1240.99,82.8194 1239.5,89.5C 1238.24,90.3816 1237.07,91.3816 1236,92.5C 1231.18,102.778 1226.52,113.111 1222,123.5C 1217.77,137.158 1214.6,151.158 1212.5,165.5C 1212.44,167.389 1212.94,169.056 1214,170.5C 1216.47,167.692 1218.97,164.859 1221.5,162C 1222.45,161.517 1223.45,161.351 1224.5,161.5C 1224.63,163.655 1224.13,165.655 1223,167.5C 1220.64,171.358 1217.48,174.358 1213.5,176.5C 1211.83,177.833 1210.17,177.833 1208.5,176.5C 1204.41,170.175 1203.41,163.342 1205.5,156C 1208.11,143.912 1210.61,131.745 1213,119.5C 1216.63,108.918 1220.63,98.585 1225,88.5C 1226.15,87.2567 1227.49,86.2567 1229,85.5C 1230.84,76.9863 1235.17,69.9863 1242,64.5C 1242.86,62.913 1243.53,61.2464 1244,59.5C 1246.09,58.2062 1248.25,57.0395 1250.5,56C 1251.68,53.7386 1253.35,51.9053 1255.5,50.5C 1266.83,44.5703 1277.49,45.4037 1287.5,53C 1289.49,55.7472 1291.99,57.9138 1295,59.5C 1296.84,63.1866 1299.18,66.5199 1302,69.5C 1307.75,82.0932 1313.91,94.4265 1320.5,106.5C 1324.12,109.064 1326.78,112.397 1328.5,116.5C 1331.89,118.387 1335.39,120.054 1339,121.5C 1343.54,119.874 1348.04,118.041 1352.5,116C 1355.78,111.936 1359.61,108.436 1364,105.5C 1367.38,98.717 1371.71,92.717 1377,87.5C 1379.67,83.4871 1382.34,79.4871 1385,75.5C 1390.95,64.712 1397.12,54.0453 1403.5,43.5 Z"/></g>
<g><path style="opacity:0.976" fill="#000000" d="M 1444.5,2047.5 C 1438.5,2047.5 1432.5,2047.5 1426.5,2047.5C 1423.35,2045.32 1420.02,2043.32 1416.5,2041.5C 1415.35,2038.01 1413.02,2036.01 1409.5,2035.5C 1408.38,2031.89 1407.38,2028.22 1406.5,2024.5C 1405.15,2023.05 1403.48,2022.38 1401.5,2022.5C 1399.61,2017.07 1397.44,2011.74 1395,2006.5C 1390.46,2004.79 1387.79,2001.46 1387,1996.5C 1384.66,1993.66 1382.16,1990.99 1379.5,1988.5C 1378.91,1984.46 1377.57,1980.79 1375.5,1977.5C 1374.18,1977.67 1373.01,1977.34 1372,1976.5C 1368.57,1972.64 1365.9,1968.3 1364,1963.5C 1359.79,1961.08 1357.62,1957.41 1357.5,1952.5C 1356.32,1952.72 1355.32,1952.39 1354.5,1951.5C 1351.09,1946.31 1347.93,1940.97 1345,1935.5C 1344.09,1933.56 1342.59,1932.56 1340.5,1932.5C 1340.13,1928.65 1339.13,1924.98 1337.5,1921.5C 1334.51,1918.68 1331.68,1915.68 1329,1912.5C 1326.3,1906.66 1322.47,1901.99 1317.5,1898.5C 1317.27,1892.2 1314.44,1887.53 1309,1884.5C 1306.5,1877.5 1302.5,1871.5 1297,1866.5C 1295.01,1863.32 1293.17,1859.99 1291.5,1856.5C 1290.31,1855.57 1288.98,1855.24 1287.5,1855.5C 1286.9,1849.59 1284.9,1844.26 1281.5,1839.5C 1281.71,1838.91 1282.04,1838.41 1282.5,1838C 1280.38,1835.86 1277.88,1834.36 1275,1833.5C 1270.97,1823.44 1264.97,1814.78 1257,1807.5C 1252.26,1798.05 1246.59,1789.38 1240,1781.5C 1239.63,1782.42 1239.13,1783.25 1238.5,1784C 1235.41,1784.91 1232.41,1786.08 1229.5,1787.5C 1228.83,1787.17 1228.17,1786.83 1227.5,1786.5C 1226.65,1787.95 1225.65,1789.28 1224.5,1790.5C 1216.97,1791.5 1210.47,1794.5 1205,1799.5C 1199.85,1799.49 1196.02,1801.65 1193.5,1806C 1189.44,1805.83 1186.11,1807.17 1183.5,1810C 1176.07,1812.6 1168.4,1814.6 1160.5,1816C 1155.48,1820.76 1149.48,1823.43 1142.5,1824C 1140.88,1824.62 1139.55,1825.62 1138.5,1827C 1132.84,1827.36 1127.17,1828.03 1121.5,1829C 1117.73,1830.42 1114.07,1832.09 1110.5,1834C 1100.08,1836.08 1089.74,1838.42 1079.5,1841C 1076.83,1842 1074.5,1843.5 1072.5,1845.5C 1071.45,1844.62 1070.29,1843.95 1069,1843.5C 1066.36,1845.05 1063.53,1846.22 1060.5,1847C 1051.16,1846.81 1041.82,1847.98 1032.5,1850.5C 1032.29,1851.09 1031.96,1851.59 1031.5,1852C 1025.61,1852.47 1019.78,1853.3 1014,1854.5C 1006.27,1855.65 998.605,1855.65 991,1854.5C 986.219,1856.94 981.052,1858.11 975.5,1858C 968.66,1858.41 961.827,1858.91 955,1859.5C 952.906,1859.46 950.906,1859.13 949,1858.5C 945.773,1858.95 942.773,1859.95 940,1861.5C 935.38,1858.89 930.713,1858.89 926,1861.5C 924.715,1861.05 923.548,1860.38 922.5,1859.5C 921.377,1860.54 920.044,1861.21 918.5,1861.5C 915.866,1860.56 913.199,1859.56 910.5,1858.5C 906.004,1858.91 901.338,1859.24 896.5,1859.5C 892.896,1859.74 889.563,1859.08 886.5,1857.5C 874.844,1857.48 863.178,1857.82 851.5,1858.5C 851.5,1857.5 851.5,1856.5 851.5,1855.5C 847.233,1856.23 842.899,1855.9 838.5,1854.5C 834.866,1855.87 831.366,1855.54 828,1853.5C 826.042,1854.05 824.042,1854.38 822,1854.5C 817.707,1852.98 813.207,1852.32 808.5,1852.5C 808.5,1851.5 808.5,1850.5 808.5,1849.5C 792.18,1849.05 776.18,1846.88 760.5,1843C 754.939,1843.2 749.772,1842.04 745,1839.5C 744,1839.83 743,1840.17 742,1840.5C 735.986,1837 729.486,1835 722.5,1834.5C 722.5,1833.5 722.5,1832.5 722.5,1831.5C 717.833,1832.83 713.167,1832.83 708.5,1831.5C 708.5,1830.5 708.5,1829.5 708.5,1828.5C 704.625,1828.64 700.792,1828.31 697,1827.5C 690.69,1824.29 683.856,1822.46 676.5,1822C 665.322,1815.61 653.322,1811.61 640.5,1810C 636.682,1807.38 632.682,1805.04 628.5,1803C 621.379,1802.63 615.379,1799.97 610.5,1795C 602.318,1793.55 594.984,1790.21 588.5,1785C 585.833,1784.67 583.167,1784.33 580.5,1784C 578.215,1781 575.381,1780.17 572,1781.5C 569.819,1779.64 567.985,1777.48 566.5,1775C 564.285,1774.31 562.118,1773.48 560,1772.5C 558.175,1772.94 556.342,1773.28 554.5,1773.5C 554.719,1772.32 554.386,1771.32 553.5,1770.5C 549.411,1768.9 546.078,1766.4 543.5,1763C 537.329,1761.96 531.995,1759.3 527.5,1755C 522.311,1753.48 517.311,1751.48 512.5,1749C 511.62,1747.64 511.286,1746.14 511.5,1744.5C 502.83,1743.55 495.497,1740.05 489.5,1734C 482.244,1731.73 476.411,1727.57 472,1721.5C 468.368,1720.72 464.868,1719.55 461.5,1718C 456.892,1714.4 452.559,1710.4 448.5,1706C 446.238,1705.36 444.071,1704.52 442,1703.5C 441.667,1703.83 441.333,1704.17 441,1704.5C 438.96,1699.12 435.127,1695.96 429.5,1695C 427.457,1693.29 425.79,1691.29 424.5,1689C 419.236,1688.7 415.236,1686.37 412.5,1682C 410.866,1681.51 409.199,1681.34 407.5,1681.5C 404.755,1677.88 402.088,1674.05 399.5,1670C 396.768,1669.59 394.101,1668.92 391.5,1668C 388.527,1664.36 385.194,1661.03 381.5,1658C 380.552,1657.52 379.552,1657.35 378.5,1657.5C 377.833,1655.5 377.167,1653.5 376.5,1651.5C 375.127,1651.66 373.793,1651.49 372.5,1651C 369.651,1646.91 366.317,1643.24 362.5,1640C 361.207,1639.51 359.873,1639.34 358.5,1639.5C 358.5,1638.5 358.5,1637.5 358.5,1636.5C 354.318,1634.51 350.484,1631.84 347,1628.5C 346.667,1627.17 346.333,1625.83 346,1624.5C 341.558,1623.56 339.058,1620.89 338.5,1616.5C 337.448,1616.65 336.448,1616.48 335.5,1616C 332.846,1611.18 328.846,1608.02 323.5,1606.5C 318.124,1600.12 312.124,1594.46 305.5,1589.5C 303.014,1586.5 300.68,1583.34 298.5,1580C 295.659,1578.41 292.993,1576.58 290.5,1574.5C 288.61,1570.66 286.444,1566.99 284,1563.5C 282.644,1562.62 281.144,1562.29 279.5,1562.5C 279.387,1558.6 277.554,1555.93 274,1554.5C 271.515,1550.69 268.682,1547.19 265.5,1544C 263.671,1543.73 262.171,1542.89 261,1541.5C 258.368,1537.19 255.701,1532.86 253,1528.5C 250.131,1526.15 246.965,1524.48 243.5,1523.5C 243.007,1521.19 242.674,1518.86 242.5,1516.5C 240.086,1514.78 237.42,1513.44 234.5,1512.5C 234.191,1506.56 231.358,1502.22 226,1499.5C 225.069,1497.54 224.236,1495.54 223.5,1493.5C 222.675,1492.61 221.675,1492.28 220.5,1492.5C 218.918,1487.69 216.085,1483.69 212,1480.5C 210.851,1477.61 210.351,1474.61 210.5,1471.5C 209.325,1471.72 208.325,1471.39 207.5,1470.5C 206.415,1466.28 203.748,1464.28 199.5,1464.5C 198.38,1461.61 197.38,1458.61 196.5,1455.5C 194.333,1453.83 192.167,1452.17 190,1450.5C 189.689,1448.44 189.189,1446.44 188.5,1444.5C 187.675,1443.61 186.675,1443.28 185.5,1443.5C 185.5,1442.5 185.5,1441.5 185.5,1440.5C 184.325,1440.72 183.325,1440.39 182.5,1439.5C 181.554,1433.71 178.72,1429.05 174,1425.5C 171.971,1421.74 170.137,1417.9 168.5,1414C 163.188,1409.27 159.688,1403.44 158,1396.5C 156.381,1393.99 154.548,1391.65 152.5,1389.5C 151.675,1388.61 150.675,1388.28 149.5,1388.5C 149.286,1386.86 149.62,1385.36 150.5,1384C 149.584,1383.63 148.75,1383.13 148,1382.5C 148.277,1376.71 145.777,1372.71 140.5,1370.5C 140.306,1365.77 138.306,1362.11 134.5,1359.5C 134.709,1358.91 135.043,1358.41 135.5,1358C 133.409,1355.74 132.076,1353.07 131.5,1350C 130.465,1348.73 129.298,1347.56 128,1346.5C 118.582,1326.83 108.915,1307.5 99,1288.5C 97.4386,1281.59 94.7719,1275.25 91,1269.5C 89.5168,1263.12 87.8502,1256.78 86,1250.5C 83.6686,1247.12 81.3353,1243.79 79,1240.5C 74.5423,1226.79 69.8756,1213.13 65,1199.5C 64.2797,1197.89 64.4464,1196.39 65.5,1195C 64.4871,1191.21 62.3205,1187.71 59,1184.5C 56.6028,1176.5 54.4361,1168.5 52.5,1160.5C 50.0907,1158.16 49.424,1155.49 50.5,1152.5C 47.6827,1144.7 45.3494,1136.7 43.5,1128.5C 42.6584,1126.23 42.6584,1124.07 43.5,1122C 42.2986,1121.1 41.4652,1119.93 41,1118.5C 40.1881,1113.21 38.5215,1108.21 36,1103.5C 35.552,1095.79 34.7187,1088.12 33.5,1080.5C 33.3666,1077.59 32.1999,1075.25 30,1073.5C 29.2571,1071.56 29.4238,1069.73 30.5,1068C 27.9097,1064.65 27.243,1060.98 28.5,1057C 26.3843,1055.83 25.7176,1054.33 26.5,1052.5C 24.875,1045.26 23.7083,1037.93 23,1030.5C 22.1729,1029.34 21.3396,1028.17 20.5,1027C 20.8201,1024.65 21.1535,1022.32 21.5,1020C 19.4682,1017.28 19.1348,1014.28 20.5,1011C 18.4372,1005.17 17.1039,999.171 16.5,993C 16.6448,992.228 16.9781,991.561 17.5,991C 16.7253,981.283 15.392,971.616 13.5,962C 13.8443,960.635 14.5109,959.468 15.5,958.5C 13.8964,957.397 12.8964,955.897 12.5,954C 12.5593,947.406 12.8926,940.906 13.5,934.5C 11.6786,931.46 11.3453,928.127 12.5,924.5C 12.6467,921.747 11.9801,919.247 10.5,917C 13.1063,912.601 13.1063,908.267 10.5,904C 13.2982,899.611 12.9649,895.444 9.5,891.5C 10.09,890.201 11.09,889.368 12.5,889C 10.301,884.476 9.96768,879.809 11.5,875C 10.572,874.612 9.90536,873.945 9.5,873C 10.8333,870 10.8333,867 9.5,864C 10.1667,862.667 10.8333,861.333 11.5,860C 9.44659,855.779 9.44659,851.445 11.5,847C 8.98753,845.127 9.1542,843.293 12,841.5C 14.1893,837.448 13.6893,833.948 10.5,831C 10.9963,829.004 11.9963,827.337 13.5,826C 12.8922,824.769 12.5589,823.436 12.5,822C 12.9654,811.946 13.9654,801.946 15.5,792C 15.7258,789.329 15.0591,786.996 13.5,785C 15.1667,782 16.8333,779 18.5,776C 16.0174,773.736 16.0174,771.403 18.5,769C 17.1067,764.636 17.7734,760.636 20.5,757C 19.4216,756.326 18.7549,755.326 18.5,754C 19.9483,750.256 21.2817,746.423 22.5,742.5C 23.4812,733.317 24.6479,723.983 26,714.5C 27.6783,713.318 27.5117,712.152 25.5,711C 26.5054,709.328 27.8387,707.995 29.5,707C 28.9186,706.107 28.5852,705.107 28.5,704C 29.35,698.516 30.0167,693.016 30.5,687.5C 31.5,687.5 32.5,687.5 33.5,687.5C 35.0756,678.354 36.2422,669.354 37,660.5C 39.9564,656.58 41.4564,652.08 41.5,647C 42.4352,644.684 43.6018,642.518 45,640.5C 46.68,633.157 48.5133,625.99 50.5,619C 49.306,616.342 50.306,615.176 53.5,615.5C 53.951,608.472 55.7843,601.805 59,595.5C 59.425,590.993 60.2584,586.659 61.5,582.5C 62.5,582.5 63.5,582.5 64.5,582.5C 64.45,576.482 66.2833,571.149 70,566.5C 70.539,563.471 71.2057,560.471 72,557.5C 76.3685,547.355 81.0352,537.355 86,527.5C 87.1581,527.002 87.9915,526.169 88.5,525C 89.3999,520.867 90.0666,516.7 90.5,512.5C 95.964,512.19 98.464,509.19 98,503.5C 101.05,499.388 103.05,494.721 104,489.5C 107.136,486.896 108.969,483.562 109.5,479.5C 110.325,478.614 111.325,478.281 112.5,478.5C 113.856,474.422 115.356,470.422 117,466.5C 119.467,462.1 122.467,458.1 126,454.5C 127.795,448.613 130.629,443.28 134.5,438.5C 135.325,437.614 136.325,437.281 137.5,437.5C 137.936,433.426 139.769,430.093 143,427.5C 143.54,422.855 145.873,419.521 150,417.5C 151.528,414.583 152.861,411.583 154,408.5C 158.393,407.605 160.227,404.938 159.5,400.5C 161.39,400.703 162.89,400.037 164,398.5C 165.974,393.708 168.141,389.042 170.5,384.5C 171.978,384.762 173.311,384.429 174.5,383.5C 176.877,378.712 179.71,374.379 183,370.5C 185.468,367.325 188.468,364.659 192,362.5C 192.925,358.399 195.425,356.399 199.5,356.5C 198.984,351.814 200.984,349.481 205.5,349.5C 209.87,344.462 213.537,338.796 216.5,332.5C 218.555,330.543 220.888,329.043 223.5,328C 224.947,325.219 226.78,322.719 229,320.5C 229.333,320.833 229.667,321.167 230,321.5C 231.085,320.707 232.252,320.04 233.5,319.5C 238.13,312.038 243.963,305.704 251,300.5C 253.955,295.769 258.121,292.602 263.5,291C 265.039,286.628 268.039,283.795 272.5,282.5C 276.15,277.688 280.817,274.188 286.5,272C 288.179,269.799 290.179,267.966 292.5,266.5C 293.246,265.264 293.579,263.93 293.5,262.5C 297.905,261.447 301.572,259.114 304.5,255.5C 308.035,253.379 311.702,251.545 315.5,250C 319.814,245.356 324.48,241.022 329.5,237C 336.537,234.086 342.871,230.086 348.5,225C 353.369,223.259 357.702,220.592 361.5,217C 366.609,214.253 371.942,212.253 377.5,211C 381.855,208.273 385.855,205.106 389.5,201.5C 393.404,200.024 397.404,198.857 401.5,198C 403.053,196.903 404.386,195.57 405.5,194C 413.438,192.197 420.438,188.53 426.5,183C 433.584,181.524 440.251,178.858 446.5,175C 452.958,173.251 459.291,171.251 465.5,169C 468.833,167.333 472.167,165.667 475.5,164C 480.357,163.811 485.024,162.811 489.5,161C 491.291,160.585 492.624,159.585 493.5,158C 496.833,157.667 500.167,157.333 503.5,157C 507.723,154.521 512.056,152.187 516.5,150C 530.015,148.565 543.015,145.232 555.5,140C 562.823,139.223 570.157,138.556 577.5,138C 580.211,137.227 582.711,136.06 585,134.5C 586.841,137.323 588.341,137.156 589.5,134C 596.472,132.781 603.305,131.281 610,129.5C 613.789,130.562 617.623,130.729 621.5,130C 623.556,128.481 625.89,127.647 628.5,127.5C 633.935,127.38 639.435,127.713 645,128.5C 650.227,126.35 655.561,125.684 661,126.5C 668.087,125.685 675.253,125.185 682.5,125C 684.24,123.173 685.907,123.34 687.5,125.5C 691.125,121.871 695.125,121.537 699.5,124.5C 702.5,123.833 705.5,123.167 708.5,122.5C 709.801,123.478 710.968,123.145 712,121.5C 714.098,123.049 716.431,124.049 719,124.5C 727.747,123.546 736.581,123.212 745.5,123.5C 749.874,125.915 754.207,125.915 758.5,123.5C 763.345,125.088 768.345,126.088 773.5,126.5C 774.833,126.167 776.167,125.833 777.5,125.5C 780.263,126.477 783.096,127.143 786,127.5C 792.787,127.191 799.453,127.191 806,127.5C 809.079,127.943 811.912,128.943 814.5,130.5C 815.328,129.585 816.328,128.919 817.5,128.5C 819.691,129.743 822.024,130.576 824.5,131C 834.081,130.749 843.081,132.582 851.5,136.5C 860.731,136.647 869.564,138.314 878,141.5C 881.111,140.085 883.945,140.585 886.5,143C 894.629,143.522 902.629,144.522 910.5,146C 912.262,148.341 914.595,149.841 917.5,150.5C 923.157,151.573 928.824,152.573 934.5,153.5C 941.798,156.395 949.131,159.228 956.5,162C 965.18,162.077 972.847,164.744 979.5,170C 982.833,170.333 986.167,170.667 989.5,171C 996.163,174.914 1003,178.414 1010,181.5C 1012.8,180.557 1015.63,180.724 1018.5,182C 1026.89,187.038 1035.89,191.038 1045.5,194C 1047.46,197.479 1050.46,199.146 1054.5,199C 1059.68,202.477 1065.35,204.811 1071.5,206C 1076.12,208.642 1080.46,211.642 1084.5,215C 1088.94,216.19 1093.28,217.524 1097.5,219C 1098.17,220.333 1098.83,221.667 1099.5,223C 1103.03,223.145 1106.36,223.978 1109.5,225.5C 1110.43,226.689 1110.76,228.022 1110.5,229.5C 1112.53,229.338 1114.53,229.505 1116.5,230C 1121.04,232.551 1125.71,234.884 1130.5,237C 1132.82,241.396 1136.49,243.896 1141.5,244.5C 1143.82,245.966 1145.82,247.799 1147.5,250C 1149.85,250.334 1152.18,250.167 1154.5,249.5C 1154.5,250.833 1154.5,252.167 1154.5,253.5C 1155.87,253.343 1157.21,253.51 1158.5,254C 1164.02,260.659 1171.02,264.992 1179.5,267C 1181.4,268.815 1183.07,270.815 1184.5,273C 1188.21,275.321 1192.21,277.321 1196.5,279C 1197.5,280.667 1198.5,282.333 1199.5,284C 1210.51,287.811 1219.68,294.311 1227,303.5C 1227.72,302.941 1228.56,302.608 1229.5,302.5C 1231.66,303.832 1233.33,305.666 1234.5,308C 1235.45,308.483 1236.45,308.649 1237.5,308.5C 1237.28,309.675 1237.61,310.675 1238.5,311.5C 1246.78,318.411 1254.78,325.577 1262.5,333C 1269.01,334.838 1273.67,338.838 1276.5,345C 1283.63,345.897 1287.96,349.897 1289.5,357C 1294.01,357.922 1298.01,359.922 1301.5,363C 1302.45,363.483 1303.45,363.649 1304.5,363.5C 1304.69,365.564 1305.19,367.564 1306,369.5C 1310.64,373.143 1314.98,377.143 1319,381.5C 1319.48,382.448 1319.65,383.448 1319.5,384.5C 1320.55,384.351 1321.55,384.517 1322.5,385C 1326.17,389.333 1329.83,393.667 1333.5,398C 1338.22,398.494 1340.88,400.994 1341.5,405.5C 1342.5,405.5 1343.5,405.5 1344.5,405.5C 1344.5,406.5 1344.5,407.5 1344.5,408.5C 1345.5,408.5 1346.5,408.5 1347.5,408.5C 1347.35,409.552 1347.52,410.552 1348,411.5C 1354.33,415.835 1358.99,421.502 1362,428.5C 1364.96,430.161 1367.96,431.828 1371,433.5C 1371.33,434.833 1371.67,436.167 1372,437.5C 1376.15,439.653 1378.82,442.986 1380,447.5C 1382.87,449.522 1384.7,452.189 1385.5,455.5C 1387.2,455.034 1388.7,455.034 1390,455.5C 1390.49,456.549 1390.33,457.549 1389.5,458.5C 1392.72,461.375 1395.89,464.375 1399,467.5C 1403.14,472.414 1406.8,477.748 1410,483.5C 1413.13,484.802 1414.97,487.135 1415.5,490.5C 1416.73,492.321 1418.39,493.321 1420.5,493.5C 1421.34,496.907 1422.34,500.241 1423.5,503.5C 1427.56,503.919 1429.56,506.252 1429.5,510.5C 1433.75,514.409 1436.75,519.076 1438.5,524.5C 1440.61,524.679 1442.27,525.679 1443.5,527.5C 1449.45,537.217 1455.78,546.717 1462.5,556C 1467.99,566.494 1474.32,576.328 1481.5,585.5C 1483.59,591.958 1486.92,597.624 1491.5,602.5C 1493.07,607.19 1494.4,611.856 1495.5,616.5C 1497.14,616.286 1498.64,616.62 1500,617.5C 1500.49,621.528 1502.15,624.861 1505,627.5C 1504.91,630.501 1506.24,632.501 1509,633.5C 1509.68,634.784 1509.52,635.951 1508.5,637C 1512.93,642.471 1516.27,648.638 1518.5,655.5C 1520.33,657.833 1522.17,660.167 1524,662.5C 1524.43,668.483 1526.76,673.483 1531,677.5C 1535.39,690.263 1540.89,702.597 1547.5,714.5C 1547.29,715.086 1546.96,715.586 1546.5,716C 1547.92,718.983 1548.75,722.15 1549,725.5C 1550.62,726.641 1552.45,727.474 1554.5,728C 1554.04,728.414 1553.71,728.914 1553.5,729.5C 1560.23,744.857 1565.4,760.524 1569,776.5C 1573.19,777.129 1574.36,779.295 1572.5,783C 1574.27,788.015 1576.44,792.849 1579,797.5C 1579.72,799.112 1579.55,800.612 1578.5,802C 1582.3,813.388 1586.13,824.888 1590,836.5C 1590,840.436 1590.84,844.103 1592.5,847.5C 1591.66,850.836 1592.82,853.503 1596,855.5C 1597.24,859.712 1597.41,863.879 1596.5,868C 1598.85,870.354 1599.51,873.021 1598.5,876C 1599.74,877.154 1600.74,878.488 1601.5,880C 1600.38,881.875 1600.38,884.042 1601.5,886.5C 1602.5,886.5 1603.5,886.5 1604.5,886.5C 1603.43,892.431 1604.09,898.264 1606.5,904C 1605.47,907.256 1606.3,910.09 1609,912.5C 1609.31,915.372 1609.81,918.205 1610.5,921C 1609.82,928.062 1611.49,934.562 1615.5,940.5C 1614.17,942.5 1612.83,944.5 1611.5,946.5C 1612.45,948.4 1613.95,949.733 1616,950.5C 1616.49,952.134 1616.66,953.801 1616.5,955.5C 1615.5,955.5 1614.5,955.5 1613.5,955.5C 1614.44,957.838 1615.77,960.005 1617.5,962C 1617.09,962.945 1616.43,963.612 1615.5,964C 1617.24,969.323 1617.9,974.823 1617.5,980.5C 1618.5,980.5 1619.5,980.5 1620.5,980.5C 1620.67,982.912 1620,985.079 1618.5,987C 1621.44,994.298 1622.44,1002.13 1621.5,1010.5C 1622.5,1010.5 1623.5,1010.5 1624.5,1010.5C 1624.03,1012.2 1624.03,1013.7 1624.5,1015C 1621.84,1016.66 1621.84,1018.32 1624.5,1020C 1624.48,1023.97 1624.15,1027.97 1623.5,1032C 1625.82,1034.23 1626.15,1036.73 1624.5,1039.5C 1625.23,1044.47 1625.73,1049.47 1626,1054.5C 1627.84,1056.73 1627.34,1058.56 1624.5,1060C 1625.17,1061.33 1626.17,1062.33 1627.5,1063C 1626.17,1064 1626.17,1065 1627.5,1066C 1624.83,1067.33 1624.83,1068.67 1627.5,1070C 1627.04,1070.41 1626.71,1070.91 1626.5,1071.5C 1628.09,1073.17 1628.75,1075.17 1628.5,1077.5C 1625.07,1077.35 1624.74,1078.52 1627.5,1081C 1624.92,1084.26 1624.92,1087.6 1627.5,1091C 1626.83,1091.67 1626.17,1092.33 1625.5,1093C 1626.83,1094 1626.83,1095 1625.5,1096C 1626.45,1096.48 1627.45,1096.65 1628.5,1096.5C 1628.5,1097.5 1628.5,1098.5 1628.5,1099.5C 1627.45,1099.35 1626.45,1099.52 1625.5,1100C 1628.82,1101.25 1629.15,1102.92 1626.5,1105C 1627.97,1108.04 1627.63,1110.87 1625.5,1113.5C 1627.94,1115.95 1627.94,1118.45 1625.5,1121C 1627.45,1122.74 1628.45,1124.91 1628.5,1127.5C 1626.9,1127.31 1625.56,1127.81 1624.5,1129C 1625.21,1133.19 1626.21,1137.36 1627.5,1141.5C 1625.8,1147.69 1624.47,1154.03 1623.5,1160.5C 1623.07,1163.67 1623.73,1166.67 1625.5,1169.5C 1623.64,1169.46 1622.31,1170.29 1621.5,1172C 1622.69,1173.02 1623.69,1174.19 1624.5,1175.5C 1623.29,1176.87 1622.29,1178.37 1621.5,1180C 1622.5,1181.67 1623.5,1183.33 1624.5,1185C 1621.5,1189.83 1620.83,1194.99 1622.5,1200.5C 1621.28,1204.03 1620.95,1207.53 1621.5,1211C 1619.64,1213.67 1618.64,1216.67 1618.5,1220C 1618.37,1227.61 1617.37,1234.94 1615.5,1242C 1616.5,1244.7 1616,1247.2 1614,1249.5C 1613.67,1253.5 1613.33,1257.5 1613,1261.5C 1611.91,1266.56 1610.41,1271.56 1608.5,1276.5C 1610.33,1279.51 1609.66,1281.68 1606.5,1283C 1608.77,1284.86 1608.43,1286.52 1605.5,1288C 1606.22,1289.53 1607.22,1290.86 1608.5,1292C 1607.05,1293.56 1605.38,1294.9 1603.5,1296C 1604.58,1296.67 1605.25,1297.67 1605.5,1299C 1604.82,1301.52 1603.49,1303.69 1601.5,1305.5C 1602.38,1306.55 1603.05,1307.71 1603.5,1309C 1601.83,1311.67 1600.17,1314.33 1598.5,1317C 1598.96,1318.3 1599.29,1319.63 1599.5,1321C 1597.99,1325.37 1597.16,1329.87 1597,1334.5C 1596.59,1334.96 1596.09,1335.29 1595.5,1335.5C 1594.03,1340.77 1592.86,1346.1 1592,1351.5C 1589.46,1353.39 1588.62,1355.72 1589.5,1358.5C 1587.87,1360.22 1586.7,1362.22 1586,1364.5C 1585.09,1370.67 1583.75,1376.67 1582,1382.5C 1577.61,1390.64 1574.28,1399.3 1572,1408.5C 1566.72,1417.41 1563.39,1427.08 1562,1437.5C 1560.64,1438.38 1559.14,1438.71 1557.5,1438.5C 1556.32,1447.41 1553.15,1455.41 1548,1462.5C 1545.93,1466.7 1544.27,1471.04 1543,1475.5C 1541.64,1476.38 1540.14,1476.71 1538.5,1476.5C 1538.92,1479.36 1537.92,1481.53 1535.5,1483C 1536.41,1484.79 1536.58,1486.62 1536,1488.5C 1533.51,1490.99 1531.01,1493.49 1528.5,1496C 1529.15,1497.44 1529.48,1498.94 1529.5,1500.5C 1528.5,1500.5 1527.5,1500.5 1526.5,1500.5C 1524.53,1505.37 1522.69,1510.37 1521,1515.5C 1519.33,1516.5 1518,1517.83 1517,1519.5C 1514.49,1525.89 1511.82,1532.22 1509,1538.5C 1503.91,1539.26 1501.25,1542.26 1501,1547.5C 1499.25,1548.63 1497.41,1549.63 1495.5,1550.5C 1494.23,1554.14 1493.06,1557.81 1492,1561.5C 1486.36,1569.64 1480.19,1577.3 1473.5,1584.5C 1471.35,1590.99 1467.35,1595.99 1461.5,1599.5C 1460.65,1601.94 1459.65,1604.27 1458.5,1606.5C 1459.69,1608.63 1461.53,1609.97 1464,1610.5C 1465.32,1614.43 1467.82,1617.43 1471.5,1619.5C 1473.55,1623.5 1476.05,1627.16 1479,1630.5C 1488.4,1635.57 1495.4,1642.9 1500,1652.5C 1506.33,1655.82 1510.67,1660.82 1513,1667.5C 1520.9,1671.73 1527.23,1677.73 1532,1685.5C 1535.03,1686.8 1537.2,1688.97 1538.5,1692C 1539.77,1692.31 1540.93,1692.81 1542,1693.5C 1544.14,1700.32 1548.48,1705.32 1555,1708.5C 1562.55,1718.97 1570.72,1728.97 1579.5,1738.5C 1584.75,1741.25 1589.25,1744.92 1593,1749.5C 1594.74,1753.02 1596.74,1756.35 1599,1759.5C 1603.12,1760.31 1605.96,1762.64 1607.5,1766.5C 1609.91,1769.28 1612.74,1771.61 1616,1773.5C 1616.86,1775.09 1617.53,1776.75 1618,1778.5C 1620.04,1779.1 1621.87,1780.1 1623.5,1781.5C 1624.91,1784.66 1626.58,1787.66 1628.5,1790.5C 1633.02,1791.35 1635.36,1794.02 1635.5,1798.5C 1636.98,1798.24 1638.31,1798.57 1639.5,1799.5C 1643.88,1803.55 1647.54,1808.22 1650.5,1813.5C 1654.36,1815.69 1657.53,1818.69 1660,1822.5C 1661.48,1833.73 1658.98,1843.9 1652.5,1853C 1645.78,1854.51 1641.45,1858.51 1639.5,1865C 1636.18,1866.33 1633.18,1868.16 1630.5,1870.5C 1629.91,1874.88 1627.58,1877.71 1623.5,1879C 1619.95,1883.88 1615.28,1887.21 1609.5,1889C 1606.39,1895.77 1601.56,1900.94 1595,1904.5C 1594.33,1905.83 1593.67,1907.17 1593,1908.5C 1589,1913 1584.5,1917 1579.5,1920.5C 1578.36,1922.8 1577.03,1924.97 1575.5,1927C 1573.5,1927.33 1571.5,1927.67 1569.5,1928C 1567.56,1931.61 1565.22,1934.94 1562.5,1938C 1560.98,1939.01 1559.31,1939.51 1557.5,1939.5C 1557.42,1941.93 1556.42,1943.93 1554.5,1945.5C 1548.17,1950.01 1542,1954.67 1536,1959.5C 1533.73,1961.71 1532.23,1964.38 1531.5,1967.5C 1529.27,1968.74 1527.1,1970.08 1525,1971.5C 1524.5,1976.67 1521.66,1978.83 1516.5,1978C 1514.03,1980.44 1512.2,1983.27 1511,1986.5C 1507.21,1987.45 1505.04,1989.79 1504.5,1993.5C 1502.64,1993.46 1501.31,1994.29 1500.5,1996C 1498.87,1996.49 1497.2,1996.66 1495.5,1996.5C 1494.83,2000.86 1492.5,2004.19 1488.5,2006.5C 1487.05,2007.85 1486.38,2009.52 1486.5,2011.5C 1483.95,2011.39 1481.62,2012.05 1479.5,2013.5C 1478.03,2017.31 1475.36,2019.65 1471.5,2020.5C 1471.5,2021.5 1471.5,2022.5 1471.5,2023.5C 1469.74,2023.36 1468.07,2023.69 1466.5,2024.5C 1464.23,2028.07 1461.73,2031.4 1459,2034.5C 1454.58,2039.39 1449.75,2043.73 1444.5,2047.5 Z M 651.5,265.5 C 663.34,266.778 675.174,266.778 687,265.5C 691.111,267.744 695.111,268.078 699,266.5C 705.627,267.886 712.293,268.219 719,267.5C 725.455,269.121 731.955,270.788 738.5,272.5C 739.548,271.617 740.715,270.95 742,270.5C 745.218,273.017 748.718,273.683 752.5,272.5C 754.836,274.454 757.336,274.787 760,273.5C 770.651,276.203 781.485,278.037 792.5,279C 797.801,281.355 803.301,283.188 809,284.5C 811.527,283.873 814.027,284.373 816.5,286C 823.69,287.884 831.023,289.218 838.5,290C 840.377,292.106 842.71,293.439 845.5,294C 853.944,296.609 862.61,298.609 871.5,300C 874.3,301.485 876.966,303.151 879.5,305C 892.753,309.278 906.087,313.611 919.5,318C 920.973,318.71 921.64,319.876 921.5,321.5C 928.622,323.872 935.622,326.706 942.5,330C 943.047,330.925 943.713,331.758 944.5,332.5C 948.167,333.667 951.833,334.833 955.5,336C 961.51,339.333 967.51,342.667 973.5,346C 977.988,345.893 981.988,347.56 985.5,351C 987.5,351.333 989.5,351.667 991.5,352C 992.453,353.955 993.787,355.622 995.5,357C 1004.79,361.33 1013.79,365.997 1022.5,371C 1024.16,372.444 1024.82,374.278 1024.5,376.5C 1030.47,377.652 1036.14,379.652 1041.5,382.5C 1043.41,388.133 1047.41,390.8 1053.5,390.5C 1054.63,392.793 1055.96,394.96 1057.5,397C 1061.73,397.533 1065.56,399.033 1069,401.5C 1071.18,402.516 1072.34,404.182 1072.5,406.5C 1075.72,407.111 1078.72,408.278 1081.5,410C 1083.45,411.734 1084.45,413.901 1084.5,416.5C 1091.39,418.615 1097.39,422.281 1102.5,427.5C 1106.34,429.921 1110.34,432.088 1114.5,434C 1120.47,439.966 1126.47,445.966 1132.5,452C 1135.04,453.77 1137.71,455.27 1140.5,456.5C 1144.74,460.45 1148.74,464.616 1152.5,469C 1153.94,469.219 1155.27,469.719 1156.5,470.5C 1157.24,472.541 1158.07,474.541 1159,476.5C 1162.17,478.333 1165.33,480.167 1168.5,482C 1168.83,485 1170.5,486.667 1173.5,487C 1175.55,489.055 1177.22,491.388 1178.5,494C 1180.68,495.202 1183.01,495.702 1185.5,495.5C 1186.11,498.721 1187.28,501.721 1189,504.5C 1193.13,509.282 1197.96,513.282 1203.5,516.5C 1209.89,525.72 1217.39,533.72 1226,540.5C 1229.2,546.701 1233.53,552.035 1239,556.5C 1239.48,557.448 1239.65,558.448 1239.5,559.5C 1240.5,559.5 1241.5,559.5 1242.5,559.5C 1243.29,562.97 1245.29,565.637 1248.5,567.5C 1251.28,572.732 1254.78,577.398 1259,581.5C 1259.33,581.167 1259.67,580.833 1260,580.5C 1262.54,588.875 1267.54,595.542 1275,600.5C 1276.04,605.126 1278.37,608.793 1282,611.5C 1289.78,624.72 1298.78,637.053 1309,648.5C 1312.26,654.584 1315.26,660.918 1318,667.5C 1322.72,670.587 1325.72,674.92 1327,680.5C 1332.79,684.607 1335.79,690.273 1336,697.5C 1339.98,702.969 1343.65,708.636 1347,714.5C 1348.33,719.495 1351,723.495 1355,726.5C 1355.02,732.181 1357.52,736.348 1362.5,739C 1360.89,740.049 1360.23,741.549 1360.5,743.5C 1361.82,743.33 1362.99,743.663 1364,744.5C 1365.15,747.768 1365.98,751.101 1366.5,754.5C 1367.5,754.5 1368.5,754.5 1369.5,754.5C 1368.89,759.22 1370.56,762.886 1374.5,765.5C 1375.73,769.812 1376.9,774.145 1378,778.5C 1381.27,783.655 1383.77,789.155 1385.5,795C 1386.01,796.169 1386.84,797.002 1388,797.5C 1391.84,807.183 1395.84,816.849 1400,826.5C 1400.74,830.813 1401.24,835.147 1401.5,839.5C 1403.17,839.5 1404.83,839.5 1406.5,839.5C 1406.34,841.857 1406.5,844.19 1407,846.5C 1408.68,849.029 1410.18,851.696 1411.5,854.5C 1410.83,855.167 1410.17,855.833 1409.5,856.5C 1411.37,861.912 1414.04,866.912 1417.5,871.5C 1418.68,879.556 1420.18,887.556 1422,895.5C 1422.85,898.418 1424.18,901.084 1426,903.5C 1425.78,908.361 1427.28,912.527 1430.5,916C 1430.34,920.682 1430.34,925.515 1430.5,930.5C 1433.77,930.471 1434.44,931.804 1432.5,934.5C 1436.55,941.696 1438.22,949.363 1437.5,957.5C 1439.75,962.576 1441.08,967.909 1441.5,973.5C 1442.71,974.874 1443.71,976.374 1444.5,978C 1443.27,981.429 1443.94,984.429 1446.5,987C 1445.83,987.667 1445.17,988.333 1444.5,989C 1446.17,991.387 1447.84,993.721 1449.5,996C 1448.1,997.062 1447.1,998.395 1446.5,1000C 1447.04,1004.79 1448.38,1009.29 1450.5,1013.5C 1450,1023.15 1450.5,1032.82 1452,1042.5C 1452.83,1043.66 1453.66,1044.83 1454.5,1046C 1453.15,1047.56 1452.49,1049.39 1452.5,1051.5C 1454.86,1060.75 1455.53,1069.91 1454.5,1079C 1454.82,1080.65 1455.82,1081.65 1457.5,1082C 1455.99,1083.47 1455.33,1085.31 1455.5,1087.5C 1456.65,1090.69 1457.31,1094.02 1457.5,1097.5C 1457.08,1100.28 1456.41,1102.95 1455.5,1105.5C 1456.5,1105.5 1457.5,1105.5 1458.5,1105.5C 1458.3,1107.64 1457.3,1109.3 1455.5,1110.5C 1457.74,1114.56 1457.74,1118.73 1455.5,1123C 1456,1123.5 1456.5,1124 1457,1124.5C 1457.23,1130.7 1457.73,1136.87 1458.5,1143C 1457.73,1144.22 1456.73,1145.22 1455.5,1146C 1457.99,1148.24 1457.99,1150.58 1455.5,1153C 1457.06,1155 1457.73,1157.33 1457.5,1160C 1457.64,1163.08 1456.97,1165.92 1455.5,1168.5C 1455.72,1170.06 1456.39,1171.39 1457.5,1172.5C 1455.73,1173.27 1454.73,1174.6 1454.5,1176.5C 1455.47,1179.49 1455.8,1182.32 1455.5,1185C 1454.48,1186.68 1453.48,1188.34 1452.5,1190C 1453.63,1191.47 1454.29,1193.13 1454.5,1195C 1453.5,1197 1452.5,1199 1451.5,1201C 1452.29,1202.63 1453.29,1204.13 1454.5,1205.5C 1451.96,1206.94 1451.96,1208.44 1454.5,1210C 1452.47,1211.69 1450.81,1213.69 1449.5,1216C 1449.9,1217.47 1450.57,1218.81 1451.5,1220C 1449.79,1224.42 1449.46,1228.92 1450.5,1233.5C 1448.43,1240.71 1446.1,1247.88 1443.5,1255C 1444.42,1256.15 1444.42,1257.15 1443.5,1258C 1445.66,1259.08 1445.82,1260.25 1444,1261.5C 1443.67,1263.83 1443.33,1266.17 1443,1268.5C 1442.31,1269.36 1441.48,1270.02 1440.5,1270.5C 1439.66,1275.98 1438.99,1281.48 1438.5,1287C 1438.17,1288.81 1437.51,1290.48 1436.5,1292C 1437.41,1293.79 1437.58,1295.62 1437,1297.5C 1435.71,1299.86 1434.21,1302.03 1432.5,1304C 1432.91,1305.14 1433.24,1306.31 1433.5,1307.5C 1432.09,1311.72 1431.42,1316.06 1431.5,1320.5C 1430.5,1320.5 1429.5,1320.5 1428.5,1320.5C 1428.11,1327.82 1425.77,1334.32 1421.5,1340C 1420.99,1347.76 1418.33,1354.6 1413.5,1360.5C 1413.98,1361.48 1414.64,1362.31 1415.5,1363C 1413.03,1367.99 1410.2,1372.82 1407,1377.5C 1407.63,1382.86 1405.63,1386.86 1401,1389.5C 1400.61,1393.22 1399.94,1396.89 1399,1400.5C 1397.15,1403.71 1395.48,1407.04 1394,1410.5C 1390.78,1411.72 1389.11,1414.06 1389,1417.5C 1386.24,1419.77 1384.91,1422.77 1385,1426.5C 1380.95,1432.06 1377.78,1438.06 1375.5,1444.5C 1370.43,1449.06 1367.27,1454.72 1366,1461.5C 1358.8,1469.18 1352.63,1477.52 1347.5,1486.5C 1345.64,1485.47 1344.31,1483.97 1343.5,1482C 1341.34,1481.09 1339.17,1480.25 1337,1479.5C 1335.6,1476.1 1333.44,1473.27 1330.5,1471C 1330,1469.5 1329.5,1468 1329,1466.5C 1325.79,1463.99 1322.46,1461.65 1319,1459.5C 1317.38,1456.22 1315.38,1453.22 1313,1450.5C 1310.87,1449.74 1309.2,1448.41 1308,1446.5C 1307.27,1444.1 1306.1,1441.93 1304.5,1440C 1298.01,1438.25 1294.01,1434.08 1292.5,1427.5C 1288.89,1425.4 1285.73,1422.73 1283,1419.5C 1280.72,1415.55 1278.05,1411.89 1275,1408.5C 1273.1,1406.98 1270.94,1406.32 1268.5,1406.5C 1267.83,1403.83 1267.17,1401.17 1266.5,1398.5C 1264.01,1396.88 1261.34,1395.38 1258.5,1394C 1258.05,1390.44 1256.05,1388.44 1252.5,1388C 1251.81,1386.93 1251.31,1385.77 1251,1384.5C 1248.83,1383.41 1246.83,1382.08 1245,1380.5C 1241.28,1376.27 1238.11,1371.6 1235.5,1366.5C 1229.98,1361.49 1224.48,1356.49 1219,1351.5C 1214.37,1343.87 1208.37,1337.54 1201,1332.5C 1197.75,1324.15 1192.25,1317.81 1184.5,1313.5C 1182.68,1309.93 1180.35,1306.77 1177.5,1304C 1166.37,1300.75 1156.03,1302.25 1146.5,1308.5C 1143.61,1313.01 1140.27,1317.01 1136.5,1320.5C 1133.93,1322.72 1130.93,1323.88 1127.5,1324C 1125.17,1327.17 1122.83,1330.33 1120.5,1333.5C 1115.16,1335.65 1110.82,1338.99 1107.5,1343.5C 1105.28,1344.89 1102.94,1346.06 1100.5,1347C 1098.34,1348.65 1097,1350.81 1096.5,1353.5C 1093.8,1355.85 1090.8,1357.68 1087.5,1359C 1086.04,1360.74 1084.71,1362.58 1083.5,1364.5C 1081.92,1365.3 1080.26,1365.8 1078.5,1366C 1070.56,1374.4 1062.06,1382.23 1053,1389.5C 1052.51,1390.79 1052.34,1392.13 1052.5,1393.5C 1049.58,1393.46 1046.91,1394.29 1044.5,1396C 1040.85,1399.32 1037.52,1402.98 1034.5,1407C 1031.06,1407.94 1028.73,1410.11 1027.5,1413.5C 1018.14,1416.99 1013.14,1423.83 1012.5,1434C 1013.09,1437.26 1013.09,1440.42 1012.5,1443.5C 1013.67,1448.15 1016.17,1451.82 1020,1454.5C 1020.67,1453.83 1021.33,1453.17 1022,1452.5C 1025.17,1459.34 1029.5,1465.34 1035,1470.5C 1035.29,1475.74 1037.63,1479.74 1042,1482.5C 1043.51,1486.85 1045.67,1490.85 1048.5,1494.5C 1049.69,1495.43 1051.02,1495.76 1052.5,1495.5C 1053.27,1502.45 1056.44,1508.12 1062,1512.5C 1063.53,1517.66 1066.2,1522 1070,1525.5C 1072.81,1530.9 1075.81,1536.23 1079,1541.5C 1080.11,1543.04 1081.61,1543.7 1083.5,1543.5C 1084.38,1546.92 1086.04,1549.92 1088.5,1552.5C 1089,1554.5 1089.5,1556.5 1090,1558.5C 1095.02,1564.85 1100.02,1571.18 1105,1577.5C 1114.38,1591.61 1123.21,1605.94 1131.5,1620.5C 1132.5,1620.5 1133.5,1620.5 1134.5,1620.5C 1136.66,1625.05 1138.83,1629.72 1141,1634.5C 1145.15,1638.14 1148.32,1642.47 1150.5,1647.5C 1146.84,1648.83 1143.18,1650.17 1139.5,1651.5C 1136.72,1655.71 1132.72,1657.55 1127.5,1657C 1125.15,1657.71 1123.15,1658.88 1121.5,1660.5C 1118.22,1661.32 1114.88,1661.82 1111.5,1662C 1109.65,1664.39 1107.31,1666.05 1104.5,1667C 1098.21,1668.49 1091.87,1669.82 1085.5,1671C 1084.64,1671.69 1083.98,1672.52 1083.5,1673.5C 1076.01,1675.73 1068.34,1677.23 1060.5,1678C 1060.04,1678.41 1059.71,1678.91 1059.5,1679.5C 1054.38,1681.43 1049.04,1682.59 1043.5,1683C 1040.99,1684.09 1038.49,1685.26 1036,1686.5C 1035,1685.83 1034,1685.17 1033,1684.5C 1029.85,1686.64 1026.35,1687.97 1022.5,1688.5C 1015.31,1689.66 1007.98,1689.66 1000.5,1688.5C 1000.5,1689.5 1000.5,1690.5 1000.5,1691.5C 996.486,1691.33 992.486,1691.5 988.5,1692C 984.18,1695.1 979.68,1695.26 975,1692.5C 973.674,1692.75 972.674,1693.42 972,1694.5C 971.612,1693.57 970.945,1692.91 970,1692.5C 966.587,1694.35 962.92,1695.35 959,1695.5C 936.907,1696.77 915.073,1696.77 893.5,1695.5C 880.689,1693.84 868.022,1691.84 855.5,1689.5C 853.389,1689.49 851.555,1690.15 850,1691.5C 848.831,1690.99 847.998,1690.16 847.5,1689C 837.506,1687.95 827.506,1686.95 817.5,1686C 806.396,1683.28 795.396,1680.28 784.5,1677C 779.527,1675.44 774.527,1675.11 769.5,1676C 766.079,1675.38 762.912,1673.55 760,1670.5C 754.082,1671.3 748.582,1669.8 743.5,1666C 736.016,1665.56 729.349,1663.22 723.5,1659C 714.565,1657.93 706.065,1655.43 698,1651.5C 689.938,1649.78 682.438,1646.28 675.5,1641C 672.899,1640.08 670.232,1639.41 667.5,1639C 661.881,1634.69 655.548,1632.36 648.5,1632C 645.672,1629.75 642.672,1627.75 639.5,1626C 633.514,1623.68 627.514,1621.34 621.5,1619C 616.328,1615.91 611.328,1612.58 606.5,1609C 601.871,1608.61 598.204,1606.61 595.5,1603C 590.632,1602.7 586.965,1600.53 584.5,1596.5C 579.514,1595.85 575.847,1593.35 573.5,1589C 570.443,1589.11 568.109,1587.94 566.5,1585.5C 561.379,1583.77 557.379,1580.6 554.5,1576C 547.695,1574.34 541.528,1571.51 536,1567.5C 532.447,1569.06 528.947,1568.56 525.5,1566C 522.294,1562.93 518.627,1560.6 514.5,1559C 513.345,1555.75 511.011,1553.91 507.5,1553.5C 503.734,1549.45 499.734,1545.61 495.5,1542C 493.26,1541.02 490.927,1540.52 488.5,1540.5C 488.658,1536.3 486.658,1534.14 482.5,1534C 471.766,1522.2 459.766,1511.87 446.5,1503C 444.557,1498.88 441.557,1495.88 437.5,1494C 434.29,1490.68 430.956,1487.51 427.5,1484.5C 426.614,1483.68 426.281,1482.68 426.5,1481.5C 425.448,1481.65 424.448,1481.48 423.5,1481C 420.021,1475.02 415.355,1470.19 409.5,1466.5C 404.446,1460.16 398.779,1454.49 392.5,1449.5C 388.54,1443.38 384.04,1437.71 379,1432.5C 373.578,1429.91 369.745,1425.91 367.5,1420.5C 366.372,1419.74 365.205,1419.07 364,1418.5C 362.203,1414.74 359.87,1411.4 357,1408.5C 356.517,1407.55 356.351,1406.55 356.5,1405.5C 355.167,1405.5 353.833,1405.5 352.5,1405.5C 350.876,1400.91 347.876,1397.58 343.5,1395.5C 343.799,1393.4 343.466,1391.4 342.5,1389.5C 338.277,1385.26 334.111,1380.92 330,1376.5C 327.716,1370.89 324.049,1366.56 319,1363.5C 319.106,1358.36 316.772,1355.02 312,1353.5C 311.625,1351 310.792,1348.67 309.5,1346.5C 303.826,1342.09 299.659,1336.42 297,1329.5C 295.414,1328.62 293.914,1327.62 292.5,1326.5C 290.605,1323.27 288.772,1319.93 287,1316.5C 285.649,1314.98 284.149,1313.65 282.5,1312.5C 281.669,1308 279.669,1304.17 276.5,1301C 275.873,1298.86 275.373,1296.7 275,1294.5C 273.333,1293.83 271.667,1293.17 270,1292.5C 268.992,1287.13 266.659,1282.46 263,1278.5C 260.881,1272.71 257.548,1267.71 253,1263.5C 250.578,1257.25 247.578,1251.25 244,1245.5C 244.349,1241.54 242.683,1238.87 239,1237.5C 235.396,1229.96 232.063,1222.29 229,1214.5C 225.644,1212.14 224.31,1209.14 225,1205.5C 223.638,1202.76 221.804,1200.43 219.5,1198.5C 219.177,1194.19 217.51,1190.52 214.5,1187.5C 213.682,1184.89 213.182,1182.23 213,1179.5C 212.027,1177.36 210.527,1175.69 208.5,1174.5C 207.004,1164.85 203.337,1156.18 197.5,1148.5C 194.912,1139.32 192.246,1130.15 189.5,1121C 185.225,1114.08 182.392,1106.58 181,1098.5C 179.35,1094.43 177.516,1090.43 175.5,1086.5C 175.833,1085.83 176.167,1085.17 176.5,1084.5C 173.443,1077.09 170.777,1069.59 168.5,1062C 168.833,1061.67 169.167,1061.33 169.5,1061C 167.106,1059.05 165.606,1056.55 165,1053.5C 163.704,1044.42 162.037,1035.42 160,1026.5C 156.997,1022.03 154.831,1017.53 153.5,1013C 153.911,1011.86 154.244,1010.69 154.5,1009.5C 152.468,1000.09 150.802,990.592 149.5,981C 149.735,980.127 150.069,979.293 150.5,978.5C 146.198,969.04 144.365,959.04 145,948.5C 143.483,947.048 143.316,945.548 144.5,944C 141.624,929.121 139.624,914.288 138.5,899.5C 139.882,896.555 138.882,894.722 135.5,894C 137.917,891.521 138.917,888.521 138.5,885C 137.695,879.96 136.695,874.96 135.5,870C 136.518,865.139 136.518,860.306 135.5,855.5C 135.352,852.728 136.019,850.228 137.5,848C 136.226,841.632 135.56,835.132 135.5,828.5C 135.833,822.5 136.167,816.5 136.5,810.5C 137.262,809.372 137.929,808.205 138.5,807C 138.167,805.333 137.833,803.667 137.5,802C 139.079,791.007 139.412,780.34 138.5,770C 139.497,765.697 140.497,761.364 141.5,757C 141.441,755.564 141.108,754.231 140.5,753C 141.429,747.23 142.262,741.397 143,735.5C 145.942,725.131 147.942,714.464 149,703.5C 150.786,702.213 150.953,700.713 149.5,699C 151.109,694.335 151.942,689.501 152,684.5C 153.579,680.286 154.746,675.953 155.5,671.5C 158.271,669.056 158.605,666.556 156.5,664C 157.416,663.626 158.25,663.126 159,662.5C 161.459,650.623 165.126,639.29 170,628.5C 172.541,618.32 175.541,608.32 179,598.5C 179.667,597.167 180.667,596.167 182,595.5C 185.254,587.402 187.921,579.068 190,570.5C 192.765,564.633 195.765,558.966 199,553.5C 203.45,549.052 206.117,543.719 207,537.5C 211.796,533.076 214.629,527.576 215.5,521C 217.909,518.055 220.409,515.222 223,512.5C 224.068,509.129 225.235,505.796 226.5,502.5C 228.747,501.755 230.58,500.422 232,498.5C 234.89,493.691 237.39,488.691 239.5,483.5C 240.5,483.5 241.5,483.5 242.5,483.5C 243.962,477.909 246.462,472.909 250,468.5C 254.131,465.117 257.465,461.117 260,456.5C 264.64,454.183 267.64,450.516 269,445.5C 270.441,444.13 272.108,443.13 274,442.5C 275.169,436.496 278.669,432.496 284.5,430.5C 286.138,427.564 287.472,424.564 288.5,421.5C 290.308,421.509 291.975,421.009 293.5,420C 298.574,414.6 303.241,408.933 307.5,403C 314.604,401.556 319.604,397.556 322.5,391C 326.627,389.584 329.627,386.917 331.5,383C 335.033,383.132 337.033,381.465 337.5,378C 343.776,374.059 349.776,369.725 355.5,365C 356.257,363.488 357.257,362.154 358.5,361C 369.838,354.356 380.838,347.356 391.5,340C 399.915,336.94 407.915,332.94 415.5,328C 419.974,324.369 424.64,321.035 429.5,318C 437.092,315 444.759,312.167 452.5,309.5C 453.386,308.675 453.719,307.675 453.5,306.5C 458.769,305.351 464.102,304.517 469.5,304C 473.86,298.707 479.526,296.207 486.5,296.5C 497.994,292.908 509.328,289.075 520.5,285C 525.412,283.575 530.412,282.575 535.5,282C 538.502,278.885 542.002,278.051 546,279.5C 554.877,276.935 563.877,274.935 573,273.5C 573.561,274.022 574.228,274.355 575,274.5C 586.41,271.886 597.91,269.719 609.5,268C 623.646,268.072 637.646,267.238 651.5,265.5 Z M 794.5,798.5 C 796.308,798.491 797.975,798.991 799.5,800C 801.656,801.99 803.656,804.157 805.5,806.5C 810.224,807.362 814.224,809.528 817.5,813C 823.565,813.732 828.399,816.565 832,821.5C 832.667,820.833 833.333,820.167 834,819.5C 841.936,825.036 845.936,832.702 846,842.5C 846.261,846.706 846.761,850.873 847.5,855C 847.788,857.871 847.288,860.704 846,863.5C 844.956,864.623 844.29,865.956 844,867.5C 840.833,870 838,872.833 835.5,876C 832.628,876.315 829.795,876.815 827,877.5C 820.329,881.507 813.662,885.507 807,889.5C 804.77,888.511 802.936,889.178 801.5,891.5C 795.721,891.39 790.721,893.557 786.5,898C 783.574,898.218 780.74,898.718 778,899.5C 770.95,895.296 763.45,894.462 755.5,897C 754.354,897.645 753.354,898.478 752.5,899.5C 751.12,897.826 749.787,896.16 748.5,894.5C 749.858,891.412 750.858,888.245 751.5,885C 751.753,880.367 751.753,875.7 751.5,871C 752.43,869.806 753.097,868.473 753.5,867C 753.14,865.348 752.807,863.682 752.5,862C 754.82,852.952 756.82,843.785 758.5,834.5C 757.777,832.836 758.11,831.169 759.5,829.5C 759.291,828.914 758.957,828.414 758.5,828C 761.048,821.649 763.214,815.149 765,808.5C 765.833,807 767,805.833 768.5,805C 775.81,803.836 783.144,802.836 790.5,802C 792.027,800.968 793.36,799.801 794.5,798.5 Z M 586.5,803.5 C 589.028,804.011 591.528,804.678 594,805.5C 595.107,805.415 596.107,805.081 597,804.5C 600.353,806.762 604.019,808.429 608,809.5C 609.394,810.613 610.561,811.947 611.5,813.5C 616.524,814.064 619.69,816.731 621,821.5C 622.378,823.213 624.045,824.547 626,825.5C 627.072,830.383 628.739,835.05 631,839.5C 632.037,844.295 632.87,849.129 633.5,854C 631.184,861.447 628.184,868.613 624.5,875.5C 620.371,877.291 617.704,880.291 616.5,884.5C 614.669,885.052 613.003,885.052 611.5,884.5C 610.289,885.274 610.289,886.107 611.5,887C 608.567,888.054 605.734,889.22 603,890.5C 601.635,890.156 600.468,889.489 599.5,888.5C 594.482,890.123 589.815,889.456 585.5,886.5C 583.166,887.841 581.499,887.174 580.5,884.5C 578.197,885.681 575.863,885.681 573.5,884.5C 570.372,883.017 567.372,881.351 564.5,879.5C 561.473,881.529 558.14,882.529 554.5,882.5C 554.601,871.369 554.601,860.202 554.5,849C 557.438,841.123 559.271,832.956 560,824.5C 563.485,821.675 565.152,818.009 565,813.5C 566.87,811.595 568.37,809.428 569.5,807C 572,806.167 574.5,805.333 577,804.5C 580.489,806.052 583.656,805.718 586.5,803.5 Z M 1006.5,824.5 C 1009.72,824.203 1012.72,824.87 1015.5,826.5C 1017.06,825.926 1018.56,825.26 1020,824.5C 1024.03,824.306 1027.87,824.806 1031.5,826C 1036.97,830.136 1042.3,834.302 1047.5,838.5C 1052.78,844.718 1056.78,851.718 1059.5,859.5C 1060.32,860.386 1061.32,860.719 1062.5,860.5C 1062.36,862.124 1063.03,863.29 1064.5,864C 1063.38,864.249 1062.38,864.749 1061.5,865.5C 1063.11,867.495 1064.44,869.661 1065.5,872C 1066.45,874.208 1066.45,876.708 1065.5,879.5C 1068.13,884.626 1068.79,889.959 1067.5,895.5C 1068.17,897.5 1068.83,899.5 1069.5,901.5C 1068.6,907.262 1068.6,913.095 1069.5,919C 1068.15,923.028 1067.82,927.028 1068.5,931C 1066.06,937.402 1063.72,943.902 1061.5,950.5C 1059.51,953.156 1057.18,955.489 1054.5,957.5C 1055.83,958.5 1055.83,959.5 1054.5,960.5C 1050.9,961.47 1048.74,963.803 1048,967.5C 1046.79,968.071 1045.63,968.738 1044.5,969.5C 1044.71,970.086 1045.04,970.586 1045.5,971C 1043.7,971.637 1042.36,972.803 1041.5,974.5C 1040.26,975.246 1038.93,975.579 1037.5,975.5C 1035.83,981.862 1031.83,984.528 1025.5,983.5C 1019.43,989.557 1012.1,992.89 1003.5,993.5C 1001.31,993.954 999.473,994.954 998,996.5C 996.079,995.81 994.245,995.476 992.5,995.5C 991.614,996.325 991.281,997.325 991.5,998.5C 989.833,998.5 988.167,998.5 986.5,998.5C 986.719,997.325 986.386,996.325 985.5,995.5C 981.101,997.157 977.101,996.491 973.5,993.5C 972.914,993.709 972.414,994.043 972,994.5C 969.285,991.899 968.785,988.899 970.5,985.5C 963.18,984.461 959.847,980.128 960.5,972.5C 957.834,972.934 956.667,971.934 957,969.5C 957.893,970.711 958.726,970.711 959.5,969.5C 958.675,968.614 957.675,968.281 956.5,968.5C 956.822,966.278 956.155,964.444 954.5,963C 955.337,961.989 955.67,960.822 955.5,959.5C 954.022,959.762 952.689,959.429 951.5,958.5C 952.077,956.894 952.41,955.228 952.5,953.5C 951.361,949.017 950.361,944.517 949.5,940C 950.989,937.287 950.656,934.787 948.5,932.5C 949.101,930.275 949.434,928.109 949.5,926C 948.692,924.294 947.359,923.461 945.5,923.5C 945.5,922.5 945.5,921.5 945.5,920.5C 946.675,920.719 947.675,920.386 948.5,919.5C 943.62,916.526 943.62,913.86 948.5,911.5C 947.5,910.833 946.5,910.167 945.5,909.5C 945.396,905.271 945.729,900.938 946.5,896.5C 946.67,894.285 947.337,892.285 948.5,890.5C 947.5,889.667 946.5,888.833 945.5,888C 947.4,884.579 949.066,881.079 950.5,877.5C 949.707,873.154 950.707,869.154 953.5,865.5C 950.869,863.995 951.203,863.329 954.5,863.5C 955.423,860.223 956.256,856.89 957,853.5C 960.229,849.425 962.896,845.092 965,840.5C 969.881,836.173 975.048,832.339 980.5,829C 984.753,828.8 988.92,828.3 993,827.5C 993.414,827.957 993.914,828.291 994.5,828.5C 996.542,826.287 998.875,825.62 1001.5,826.5C 1003.34,825.972 1005,825.306 1006.5,824.5 Z M 833.5,1048.5 C 834.773,1049.08 834.773,1049.74 833.5,1050.5C 832.537,1050.03 832.537,1049.36 833.5,1048.5 Z"/></g>
<g><path style="opacity:0.836" fill="#000000" d="M 1423.5,185.5 C 1425.2,185.34 1426.87,185.506 1428.5,186C 1431.79,187.228 1434.79,188.895 1437.5,191C 1441.9,192.219 1446.24,193.386 1450.5,194.5C 1451.62,199.454 1454.45,203.121 1459,205.5C 1460.81,211.474 1463.64,216.808 1467.5,221.5C 1470.1,230.693 1474.26,239.026 1480,246.5C 1482.5,252.672 1484.5,259.005 1486,265.5C 1487.51,266.257 1488.85,267.257 1490,268.5C 1492.33,274.167 1494.67,279.833 1497,285.5C 1498.51,286.257 1499.85,287.257 1501,288.5C 1503.3,293.046 1505.3,297.713 1507,302.5C 1508.01,303.337 1509.18,303.67 1510.5,303.5C 1510.97,306.815 1512.8,309.149 1516,310.5C 1516.36,312.421 1517.19,314.088 1518.5,315.5C 1520.17,314.167 1521.83,314.167 1523.5,315.5C 1528.82,312.172 1534.49,309.339 1540.5,307C 1543.81,304.865 1546.15,302.032 1547.5,298.5C 1554.15,296.662 1559.15,292.662 1562.5,286.5C 1564.19,285.772 1565.69,284.772 1567,283.5C 1569.42,279.489 1571.75,275.489 1574,271.5C 1576.29,268.935 1579.13,267.269 1582.5,266.5C 1584.11,263.78 1584.94,260.78 1585,257.5C 1590.25,249.326 1595.75,241.326 1601.5,233.5C 1602.47,231.604 1602.8,229.604 1602.5,227.5C 1603.5,227.5 1604.5,227.5 1605.5,227.5C 1604.97,224.192 1606.31,222.026 1609.5,221C 1608.65,219.119 1608.98,217.286 1610.5,215.5C 1613.26,214.896 1615.6,213.562 1617.5,211.5C 1618.39,212.325 1618.72,213.325 1618.5,214.5C 1620.97,214.736 1622.64,216.069 1623.5,218.5C 1623.35,221.727 1623.18,225.06 1623,228.5C 1621.25,236.008 1618.91,243.341 1616,250.5C 1614.43,253.822 1612.26,256.656 1609.5,259C 1610.26,261.179 1609.93,263.345 1608.5,265.5C 1605.89,268.753 1603.89,272.42 1602.5,276.5C 1596.13,283.377 1590.29,290.71 1585,298.5C 1580.59,301.886 1576.42,305.553 1572.5,309.5C 1571.68,310.386 1570.68,310.719 1569.5,310.5C 1569.5,311.5 1569.5,312.5 1569.5,313.5C 1559.05,320.763 1548.05,327.097 1536.5,332.5C 1531.25,332.969 1526.25,334.303 1521.5,336.5C 1519.36,339.203 1517.36,342.037 1515.5,345C 1511.5,345.881 1507.5,346.714 1503.5,347.5C 1502.3,345.862 1500.96,345.529 1499.5,346.5C 1497.74,345.872 1496.24,344.872 1495,343.5C 1493.59,340.418 1491.76,337.585 1489.5,335C 1488.55,334.517 1487.55,334.351 1486.5,334.5C 1485.55,332.263 1484.88,329.929 1484.5,327.5C 1480.62,326.422 1478.78,323.755 1479,319.5C 1476,315.167 1473,310.833 1470,306.5C 1470.31,302.403 1468.81,299.237 1465.5,297C 1463.7,293.721 1463.37,290.388 1464.5,287C 1462.98,285.315 1461.32,283.815 1459.5,282.5C 1459.03,278.965 1457.53,275.965 1455,273.5C 1454.1,263.386 1450.44,254.053 1444,245.5C 1443.08,242.899 1442.41,240.232 1442,237.5C 1437.26,229.94 1432.76,222.274 1428.5,214.5C 1426.66,213.77 1424.83,213.103 1423,212.5C 1420.42,213.981 1417.76,215.314 1415,216.5C 1412.23,221.272 1408.23,224.605 1403,226.5C 1401.44,231.998 1397.94,235.332 1392.5,236.5C 1392.05,244.06 1388.55,249.726 1382,253.5C 1379.59,263.48 1376.43,273.147 1372.5,282.5C 1373.31,283.216 1373.98,284.05 1374.5,285C 1373.01,287.625 1372.18,290.458 1372,293.5C 1371.2,301.216 1371.37,308.883 1372.5,316.5C 1371.37,319.07 1370.53,321.736 1370,324.5C 1369.63,325.91 1368.8,326.91 1367.5,327.5C 1364.52,325.999 1361.35,324.999 1358,324.5C 1357.45,321.386 1356.29,318.553 1354.5,316C 1354.64,315.228 1354.98,314.561 1355.5,314C 1354.74,311.056 1354.08,308.056 1353.5,305C 1353.59,295.868 1353.59,286.701 1353.5,277.5C 1356.22,273.773 1357.22,269.773 1356.5,265.5C 1359.08,259.787 1360.58,253.787 1361,247.5C 1361.71,246.027 1362.88,245.36 1364.5,245.5C 1364.74,240.903 1366.57,237.236 1370,234.5C 1370.36,232.392 1371.03,230.392 1372,228.5C 1375,223.833 1378,219.167 1381,214.5C 1385.27,212.982 1387.94,209.982 1389,205.5C 1393.58,202.254 1397.41,198.421 1400.5,194C 1404.95,192.61 1408.95,190.444 1412.5,187.5C 1414.5,187.833 1416.5,188.167 1418.5,188.5C 1420.6,188.043 1422.26,187.043 1423.5,185.5 Z"/></g>
<g><path style="opacity:0.716" fill="#000000" d="M 1741.5,448.5 C 1742.75,448.577 1743.58,449.244 1744,450.5C 1743.87,461.177 1743.2,471.844 1742,482.5C 1737.36,504.411 1730.36,525.411 1721,545.5C 1714.89,555.874 1707.39,565.041 1698.5,573C 1689.98,577.21 1681.32,577.543 1672.5,574C 1669.31,570.818 1665.81,567.985 1662,565.5C 1657.69,558.515 1653.36,551.515 1649,544.5C 1648.69,540.012 1646.52,536.678 1642.5,534.5C 1638.21,526.03 1632.54,518.53 1625.5,512C 1620.9,510.517 1616.23,509.35 1611.5,508.5C 1604.01,510.281 1597.01,513.115 1590.5,517C 1589.34,519.816 1588.17,522.65 1587,525.5C 1580,533.13 1572.34,539.797 1564,545.5C 1558.9,554.049 1553.57,562.382 1548,570.5C 1544.86,579.133 1543.69,587.966 1544.5,597C 1544.1,598.473 1543.43,599.806 1542.5,601C 1542.83,601.333 1543.17,601.667 1543.5,602C 1541.87,604.65 1539.7,605.483 1537,604.5C 1536.78,605.938 1536.28,607.271 1535.5,608.5C 1532.99,606.494 1530.83,604.16 1529,601.5C 1527.46,595.852 1527.3,590.185 1528.5,584.5C 1530.77,582.119 1530.77,579.619 1528.5,577C 1531.4,571.356 1533.9,565.523 1536,559.5C 1540.44,556.296 1543.11,551.963 1544,546.5C 1545,545.833 1546,545.167 1547,544.5C 1546.02,542.402 1546.35,540.402 1548,538.5C 1550.17,537.667 1551.67,536.167 1552.5,534C 1553.45,533.517 1554.45,533.351 1555.5,533.5C 1555.5,532.5 1555.5,531.5 1555.5,530.5C 1559.51,529.84 1561.51,527.506 1561.5,523.5C 1562.55,523.649 1563.55,523.483 1564.5,523C 1566.26,518.41 1569.26,514.91 1573.5,512.5C 1583.15,510.116 1592.15,506.282 1600.5,501C 1604.15,500.226 1607.81,499.559 1611.5,499C 1612.5,497 1613.5,497 1614.5,499C 1620.16,499.082 1625.5,500.416 1630.5,503C 1631.7,503.903 1632.53,505.069 1633,506.5C 1633.33,506.167 1633.67,505.833 1634,505.5C 1637.81,507.425 1640.47,510.425 1642,514.5C 1643,515.167 1644,515.833 1645,516.5C 1648.28,522.74 1652.28,528.407 1657,533.5C 1660.18,542.418 1665.18,550.085 1672,556.5C 1675.74,563.751 1681.57,565.918 1689.5,563C 1691.99,560.186 1694.82,557.686 1698,555.5C 1700.62,550.587 1703.95,546.254 1708,542.5C 1717.36,523.444 1725.36,503.777 1732,483.5C 1736.03,471.899 1739.2,460.232 1741.5,448.5 Z"/></g>
<g><path style="opacity:0.01" fill="#000000" d="M 377.5,657.5 C 379.337,657.639 379.67,658.306 378.5,659.5C 377.702,659.043 377.369,658.376 377.5,657.5 Z"/></g>
<g><path style="opacity:0.011" fill="#000000" d="M 382.5,661.5 C 384.337,661.639 384.67,662.306 383.5,663.5C 382.702,663.043 382.369,662.376 382.5,661.5 Z"/></g>
<g><path style="opacity:0.025" fill="#000000" d="M 388.5,666.5 C 390.337,666.639 390.67,667.306 389.5,668.5C 388.702,668.043 388.369,667.376 388.5,666.5 Z"/></g>
<g><path style="opacity:0.798" fill="#000000" d="M 1829.5,709.5 C 1830.83,709.5 1832.17,709.5 1833.5,709.5C 1833.4,715.357 1833.73,721.19 1834.5,727C 1833.94,732.161 1833.44,737.327 1833,742.5C 1829.82,751.717 1826.82,761.05 1824,770.5C 1822.41,772.421 1820.91,774.421 1819.5,776.5C 1817.28,785.955 1812.78,793.955 1806,800.5C 1803.59,803.805 1801.92,807.471 1801,811.5C 1797.07,815.363 1793.57,819.53 1790.5,824C 1784.18,828.653 1778.18,833.653 1772.5,839C 1767.84,839.25 1763.68,840.75 1760,843.5C 1757.54,843.058 1754.87,843.058 1752,843.5C 1749.29,843.42 1746.63,843.087 1744,842.5C 1740.4,839.951 1736.57,837.784 1732.5,836C 1721.41,825.023 1712.91,812.19 1707,797.5C 1706,796.833 1705,796.167 1704,795.5C 1700.57,788.962 1696.9,782.629 1693,776.5C 1688.35,771.17 1682.68,767.503 1676,765.5C 1671.59,767.246 1667.43,769.413 1663.5,772C 1652.43,782.446 1644.26,794.946 1639,809.5C 1637.09,821.443 1635.59,833.443 1634.5,845.5C 1630.25,846.046 1627.91,844.212 1627.5,840C 1629.09,831.926 1629.92,823.759 1630,815.5C 1634.47,795.37 1643.97,778.203 1658.5,764C 1662.48,761.676 1666.48,759.343 1670.5,757C 1675.67,755.376 1680.84,755.542 1686,757.5C 1690.49,761.08 1695.16,764.413 1700,767.5C 1701.74,771.693 1704.41,775.026 1708,777.5C 1710.04,782.048 1712.37,786.382 1715,790.5C 1716,791.167 1717,791.833 1718,792.5C 1719.67,796.167 1721.33,799.833 1723,803.5C 1727.59,809.598 1732.42,815.598 1737.5,821.5C 1744.62,828.118 1752.62,829.618 1761.5,826C 1767.01,820.987 1772.68,816.154 1778.5,811.5C 1795.67,786.896 1809.17,760.229 1819,731.5C 1820.58,730.04 1821.92,728.373 1823,726.5C 1824.11,720.372 1826.28,714.705 1829.5,709.5 Z"/></g>
<g><path style="opacity:0.944" fill="#000000" d="M 610.5,752.5 C 612.448,754.448 614.781,755.948 617.5,757C 618.793,757.49 620.127,757.657 621.5,757.5C 621.33,758.822 621.663,759.989 622.5,761C 629.391,761.774 634.725,764.441 638.5,769C 647.34,772.175 652.84,778.341 655,787.5C 657.277,790.399 659.777,793.066 662.5,795.5C 660.172,797.574 660.839,798.574 664.5,798.5C 664.735,803.865 666.402,808.699 669.5,813C 669.355,813.772 669.022,814.439 668.5,815C 669.667,815.5 670.5,816.333 671,817.5C 671.287,819.891 671.787,822.224 672.5,824.5C 671.543,829.781 671.21,834.947 671.5,840C 672.448,840.483 673.448,840.649 674.5,840.5C 673.313,843.044 672.313,845.71 671.5,848.5C 672.167,849.833 672.833,851.167 673.5,852.5C 673.182,853.647 672.516,854.481 671.5,855C 672.38,856.356 672.714,857.856 672.5,859.5C 671.448,859.351 670.448,859.517 669.5,860C 670.574,860.739 671.241,861.739 671.5,863C 669.847,867.767 668.514,872.934 667.5,878.5C 666.127,878.343 664.793,878.51 663.5,879C 663.502,887.646 660.669,895.48 655,902.5C 654.399,905.637 653.399,908.637 652,911.5C 645.689,918.928 639.189,926.261 632.5,933.5C 631.914,933.291 631.414,932.957 631,932.5C 627.866,935.132 624.366,937.132 620.5,938.5C 619.914,938.291 619.414,937.957 619,937.5C 618.228,938.849 617.061,939.682 615.5,940C 610.833,940.333 606.167,940.667 601.5,941C 599.579,941.36 597.912,942.194 596.5,943.5C 592.15,942.003 587.816,941.003 583.5,940.5C 582.707,940.931 581.873,941.265 581,941.5C 574.858,940.675 569.025,939.008 563.5,936.5C 559.024,938.088 558.024,940.755 560.5,944.5C 560.5,952.167 560.5,959.833 560.5,967.5C 560.879,970.761 561.879,973.761 563.5,976.5C 562.96,977.748 562.293,978.915 561.5,980C 563.032,980.7 564.032,981.866 564.5,983.5C 563.203,988.87 563.203,994.203 564.5,999.5C 567.297,1007.17 568.797,1015.17 569,1023.5C 569.735,1025.87 570.568,1028.2 571.5,1030.5C 570.833,1031.17 570.167,1031.83 569.5,1032.5C 571.161,1035.77 571.494,1039.1 570.5,1042.5C 569.05,1039.86 568.383,1040.19 568.5,1043.5C 568.854,1046.25 569.521,1048.92 570.5,1051.5C 570.049,1062.63 569.882,1073.96 570,1085.5C 569.578,1088.76 568.078,1091.43 565.5,1093.5C 556.783,1095.12 548.117,1097.29 539.5,1100C 532.144,1105.81 526.977,1104.31 524,1095.5C 523.464,1086.64 522.63,1077.8 521.5,1069C 522.521,1063.22 522.354,1057.39 521,1051.5C 519.584,1050.28 519.751,1048.95 521.5,1047.5C 520.963,1046.26 520.296,1045.09 519.5,1044C 520.709,1040.65 521.376,1037.15 521.5,1033.5C 520.884,1026.76 519.884,1020.09 518.5,1013.5C 518.229,1004.92 518.562,996.258 519.5,987.5C 516.465,985.385 513.965,982.719 512,979.5C 511.713,976.135 510.546,973.135 508.5,970.5C 509.833,968.5 509.833,966.5 508.5,964.5C 509.263,963.281 510.263,962.281 511.5,961.5C 510.585,960.672 509.919,959.672 509.5,958.5C 512.139,954.221 512.139,950.055 509.5,946C 511.63,942.353 512.963,938.687 513.5,935C 512.426,934.261 511.759,933.261 511.5,932C 511.917,926.027 512.917,920.193 514.5,914.5C 513.167,913.167 513.167,911.833 514.5,910.5C 513.833,909.5 513.167,908.5 512.5,907.5C 513.207,904.017 513.873,900.517 514.5,897C 514.595,889.935 514.262,882.935 513.5,876C 514.167,873.333 514.833,870.667 515.5,868C 514.918,860.418 514.918,852.751 515.5,845C 517.671,841.477 518.838,837.643 519,833.5C 520.255,832.789 521.421,831.956 522.5,831C 523.139,828.858 523.139,826.525 522.5,824C 523.8,821.805 524.8,819.472 525.5,817C 524.692,816.692 524.025,816.192 523.5,815.5C 524.531,814.3 525.365,812.966 526,811.5C 526.248,806.437 526.915,801.437 528,796.5C 531.793,795.27 535.126,793.27 538,790.5C 538.492,789.451 538.326,788.451 537.5,787.5C 539.49,785.344 541.657,783.344 544,781.5C 544.49,780.207 544.657,778.873 544.5,777.5C 550.892,775.239 555.892,771.239 559.5,765.5C 563.99,763.559 568.656,762.226 573.5,761.5C 574.624,760.086 575.624,758.586 576.5,757C 582.779,755.433 589.112,754.267 595.5,753.5C 599.725,755.484 604.058,755.817 608.5,754.5C 609.713,754.253 610.38,753.586 610.5,752.5 Z M 586.5,803.5 C 583.656,805.718 580.489,806.052 577,804.5C 574.5,805.333 572,806.167 569.5,807C 568.37,809.428 566.87,811.595 565,813.5C 565.152,818.009 563.485,821.675 560,824.5C 559.271,832.956 557.438,841.123 554.5,849C 554.601,860.202 554.601,871.369 554.5,882.5C 558.14,882.529 561.473,881.529 564.5,879.5C 567.372,881.351 570.372,883.017 573.5,884.5C 575.863,885.681 578.197,885.681 580.5,884.5C 581.499,887.174 583.166,887.841 585.5,886.5C 589.815,889.456 594.482,890.123 599.5,888.5C 600.468,889.489 601.635,890.156 603,890.5C 605.734,889.22 608.567,888.054 611.5,887C 610.289,886.107 610.289,885.274 611.5,884.5C 613.003,885.052 614.669,885.052 616.5,884.5C 617.704,880.291 620.371,877.291 624.5,875.5C 628.184,868.613 631.184,861.447 633.5,854C 632.87,849.129 632.037,844.295 631,839.5C 628.739,835.05 627.072,830.383 626,825.5C 624.045,824.547 622.378,823.213 621,821.5C 619.69,816.731 616.524,814.064 611.5,813.5C 610.561,811.947 609.394,810.613 608,809.5C 604.019,808.429 600.353,806.762 597,804.5C 596.107,805.081 595.107,805.415 594,805.5C 591.528,804.678 589.028,804.011 586.5,803.5 Z"/></g>
<g><path style="opacity:0.941" fill="#000000" d="M 833.5,1048.5 C 833.33,1047.18 833.663,1046.01 834.5,1045C 829.387,1044.06 829.387,1042.73 834.5,1041C 833.511,1039.18 832.511,1037.35 831.5,1035.5C 833.859,1033.33 834.525,1030.83 833.5,1028C 834.167,1026.67 834.833,1025.33 835.5,1024C 834.757,1018.17 834.09,1012.34 833.5,1006.5C 832.5,1006.5 831.5,1006.5 830.5,1006.5C 830.338,1002.54 829.338,998.87 827.5,995.5C 824.282,995.349 823.949,994.516 826.5,993C 825.464,991.383 824.297,991.216 823,992.5C 822.508,991.451 822.674,990.451 823.5,989.5C 821.225,985.101 818.058,981.434 814,978.5C 813.316,977.216 813.483,976.049 814.5,975C 811.789,973.893 809.289,972.393 807,970.5C 806.529,965.493 803.695,963.16 798.5,963.5C 798.709,962.914 799.043,962.414 799.5,962C 796.114,959.241 792.781,956.408 789.5,953.5C 788.707,953.931 787.873,954.265 787,954.5C 784.027,952.915 781.194,951.249 778.5,949.5C 774.616,951.412 770.616,951.745 766.5,950.5C 764.945,950.722 763.611,951.389 762.5,952.5C 761.389,951.389 760.055,950.722 758.5,950.5C 756.895,951.43 755.395,951.43 754,950.5C 753.167,951.333 752.333,952.167 751.5,953C 751.511,958.633 751.511,964.3 751.5,970C 751.95,971.285 752.617,972.452 753.5,973.5C 752.127,975.49 751.127,977.657 750.5,980C 752.636,982.098 752.636,984.432 750.5,987C 750.983,999.316 751.316,1011.82 751.5,1024.5C 750.885,1026.12 749.885,1027.45 748.5,1028.5C 749.262,1028.91 750.262,1029.08 751.5,1029C 751.045,1031.31 750.045,1033.31 748.5,1035C 749.624,1035.25 750.624,1035.75 751.5,1036.5C 750.62,1038.43 749.62,1040.26 748.5,1042C 749.39,1044.55 749.057,1047.05 747.5,1049.5C 747.379,1053.47 747.379,1057.47 747.5,1061.5C 746.423,1063.73 745.756,1066.06 745.5,1068.5C 744.448,1068.35 743.448,1068.52 742.5,1069C 741.587,1071.33 740.087,1073.17 738,1074.5C 730.848,1075.19 723.348,1075.19 715.5,1074.5C 710.946,1064.18 709.78,1053.52 712,1042.5C 712.5,1042 713,1041.5 713.5,1041C 711.382,1037.46 711.382,1033.79 713.5,1030C 712.647,1027.13 711.647,1024.29 710.5,1021.5C 710.546,993.118 710.546,964.451 710.5,935.5C 710.033,933.432 709.366,931.432 708.5,929.5C 708.542,904.918 708.542,879.918 708.5,854.5C 709.292,851.874 709.959,849.208 710.5,846.5C 709.945,839.692 709.612,833.192 709.5,827C 710.034,823.057 711.534,819.557 714,816.5C 715.105,812.069 715.771,807.735 716,803.5C 721.191,800.067 722.691,795.4 720.5,789.5C 721.455,781.681 725.788,778.848 733.5,781C 736.16,781.866 738.327,783.366 740,785.5C 742.556,783.599 744.389,781.099 745.5,778C 747.167,777.667 748.833,777.333 750.5,777C 752.73,773.105 756.063,770.772 760.5,770C 764.653,765.175 769.82,763.342 776,764.5C 776.899,762.632 778.399,761.632 780.5,761.5C 791.08,761.447 801.414,763.447 811.5,767.5C 814.057,770.792 817.391,773.126 821.5,774.5C 824.524,775.73 827.524,775.73 830.5,774.5C 832.982,775.897 835.648,776.731 838.5,777C 844.811,779.566 851.144,782.232 857.5,785C 860.266,786.467 862.766,788.3 865,790.5C 867.813,798.117 872.146,804.784 878,810.5C 878.333,812.167 878.667,813.833 879,815.5C 882.455,820.197 884.955,825.364 886.5,831C 885.941,831.725 885.608,832.558 885.5,833.5C 886.271,835.771 887.271,837.938 888.5,840C 887.357,842.931 887.69,845.765 889.5,848.5C 888.687,849.814 887.687,850.981 886.5,852C 888.394,853.079 888.727,854.413 887.5,856C 888.308,856.308 888.975,856.808 889.5,857.5C 888.167,858.5 888.167,859.5 889.5,860.5C 886.833,862.167 886.833,863.833 889.5,865.5C 888.068,867.816 887.068,870.316 886.5,873C 888.689,873.677 889.022,874.844 887.5,876.5C 886.271,877.281 884.938,877.781 883.5,878C 883.033,880.015 883.033,882.182 883.5,884.5C 882.272,887.746 880.606,890.746 878.5,893.5C 878.833,894.167 879.167,894.833 879.5,895.5C 874.424,898.949 870.757,903.616 868.5,909.5C 867.5,910.333 866.5,911.167 865.5,912C 866.731,913.183 866.731,914.349 865.5,915.5C 864.459,913.009 863.626,913.009 863,915.5C 862.311,914.643 861.478,913.977 860.5,913.5C 858.39,917.746 855.057,920.413 850.5,921.5C 848.389,925.537 845.056,927.537 840.5,927.5C 840.5,928.5 840.5,929.5 840.5,930.5C 838.571,930.231 836.905,930.731 835.5,932C 837.955,935.078 840.289,938.244 842.5,941.5C 843.736,942.246 845.07,942.579 846.5,942.5C 846.34,944.199 846.506,945.866 847,947.5C 852.782,954.113 857.782,961.113 862,968.5C 864.275,971.693 867.108,974.027 870.5,975.5C 870.194,979.083 871.194,982.25 873.5,985C 873.355,985.772 873.022,986.439 872.5,987C 873.592,990.199 875.259,993.032 877.5,995.5C 877.167,996.167 876.833,996.833 876.5,997.5C 877.98,1001.07 879.313,1004.74 880.5,1008.5C 879.927,1010.35 879.593,1012.19 879.5,1014C 881.425,1016.47 881.425,1019.13 879.5,1022C 880.833,1023 880.833,1024 879.5,1025C 881.807,1026.83 881.474,1028.49 878.5,1030C 879.308,1030.31 879.975,1030.81 880.5,1031.5C 879.218,1033.18 878.218,1035.01 877.5,1037C 878.672,1037.42 879.672,1038.09 880.5,1039C 879.202,1042.47 877.869,1045.97 876.5,1049.5C 877.137,1052.14 876.303,1054.47 874,1056.5C 873.338,1058.81 872.838,1061.15 872.5,1063.5C 869.123,1063.69 866.456,1065.19 864.5,1068C 864.833,1068.33 865.167,1068.67 865.5,1069C 864.552,1069.48 863.552,1069.65 862.5,1069.5C 862.5,1070.5 862.5,1071.5 862.5,1072.5C 854.735,1074.16 846.735,1074.83 838.5,1074.5C 837.396,1073.37 837.729,1072.54 839.5,1072C 838.354,1071.36 837.354,1070.52 836.5,1069.5C 835.292,1065.88 834.292,1062.21 833.5,1058.5C 829.665,1058 829.665,1057 833.5,1055.5C 830.106,1053.89 828.773,1051.22 829.5,1047.5C 830.959,1047.43 832.292,1047.77 833.5,1048.5 Z M 794.5,798.5 C 793.36,799.801 792.027,800.968 790.5,802C 783.144,802.836 775.81,803.836 768.5,805C 767,805.833 765.833,807 765,808.5C 763.214,815.149 761.048,821.649 758.5,828C 758.957,828.414 759.291,828.914 759.5,829.5C 758.11,831.169 757.777,832.836 758.5,834.5C 756.82,843.785 754.82,852.952 752.5,862C 752.807,863.682 753.14,865.348 753.5,867C 753.097,868.473 752.43,869.806 751.5,871C 751.753,875.7 751.753,880.367 751.5,885C 750.858,888.245 749.858,891.412 748.5,894.5C 749.787,896.16 751.12,897.826 752.5,899.5C 753.354,898.478 754.354,897.645 755.5,897C 763.45,894.462 770.95,895.296 778,899.5C 780.74,898.718 783.574,898.218 786.5,898C 790.721,893.557 795.721,891.39 801.5,891.5C 802.936,889.178 804.77,888.511 807,889.5C 813.662,885.507 820.329,881.507 827,877.5C 829.795,876.815 832.628,876.315 835.5,876C 838,872.833 840.833,870 844,867.5C 844.29,865.956 844.956,864.623 846,863.5C 847.288,860.704 847.788,857.871 847.5,855C 846.761,850.873 846.261,846.706 846,842.5C 845.936,832.702 841.936,825.036 834,819.5C 833.333,820.167 832.667,820.833 832,821.5C 828.399,816.565 823.565,813.732 817.5,813C 814.224,809.528 810.224,807.362 805.5,806.5C 803.656,804.157 801.656,801.99 799.5,800C 797.975,798.991 796.308,798.491 794.5,798.5 Z M 833.5,1048.5 C 832.537,1049.36 832.537,1050.03 833.5,1050.5C 834.773,1049.74 834.773,1049.08 833.5,1048.5 Z"/></g>
<g><path style="opacity:0.945" fill="#000000" d="M 1035.5,766.5 C 1037.55,766.706 1037.88,767.539 1036.5,769C 1038.65,770.357 1040.82,770.524 1043,769.5C 1046.75,770.708 1050.58,771.542 1054.5,772C 1060.11,774.022 1065.78,775.855 1071.5,777.5C 1073.24,779.883 1075.57,781.549 1078.5,782.5C 1079.17,782.167 1079.83,781.833 1080.5,781.5C 1083.34,783.846 1085.17,786.846 1086,790.5C 1087.36,791.38 1088.86,791.714 1090.5,791.5C 1090.66,794.609 1091.32,797.609 1092.5,800.5C 1098.12,807.02 1103.28,814.02 1108,821.5C 1109.21,822.071 1110.37,822.738 1111.5,823.5C 1111.29,824.086 1110.96,824.586 1110.5,825C 1111.42,827.57 1112.08,830.237 1112.5,833C 1113.08,835.134 1114.42,836.634 1116.5,837.5C 1116.29,838.086 1115.96,838.586 1115.5,839C 1117.82,840.822 1118.16,842.989 1116.5,845.5C 1116.77,849.1 1117.77,852.433 1119.5,855.5C 1117.45,858.001 1117.79,860.501 1120.5,863C 1119.97,864.559 1119.3,866.059 1118.5,867.5C 1122.07,869.835 1122.07,871.835 1118.5,873.5C 1119.44,876.872 1120.44,880.206 1121.5,883.5C 1119.54,885.529 1119.54,887.863 1121.5,890.5C 1119.12,893.055 1119.12,895.722 1121.5,898.5C 1118.98,900.255 1118.98,902.089 1121.5,904C 1120.72,905.95 1119.72,907.783 1118.5,909.5C 1119.4,911.239 1120.07,913.072 1120.5,915C 1120.56,916.711 1119.89,918.044 1118.5,919C 1118.92,921.823 1119.25,924.656 1119.5,927.5C 1118.14,931.52 1116.47,935.354 1114.5,939C 1115.18,940.693 1116.18,942.193 1117.5,943.5C 1116.87,945.258 1115.87,946.758 1114.5,948C 1115.02,948.561 1115.36,949.228 1115.5,950C 1115.23,953.032 1114.23,955.699 1112.5,958C 1114.99,959.249 1114.82,960.416 1112,961.5C 1111.47,967.817 1109.63,973.651 1106.5,979C 1106.96,979.414 1107.29,979.914 1107.5,980.5C 1104.05,988.16 1100.39,995.66 1096.5,1003C 1096.96,1003.41 1097.29,1003.91 1097.5,1004.5C 1096.3,1004.94 1095.14,1005.27 1094,1005.5C 1091.22,1013.43 1086.06,1019.1 1078.5,1022.5C 1075.31,1026.53 1071.64,1030.03 1067.5,1033C 1068.31,1033.31 1068.97,1033.81 1069.5,1034.5C 1067.8,1034.19 1066.13,1034.69 1064.5,1036C 1063.5,1038.33 1061.83,1040 1059.5,1041C 1060.71,1041.89 1060.71,1042.73 1059.5,1043.5C 1058.55,1043.01 1057.55,1042.68 1056.5,1042.5C 1051.11,1045.18 1047.11,1049.18 1044.5,1054.5C 1042.47,1052.66 1040.14,1052.16 1037.5,1053C 1034.8,1055.7 1031.8,1058.03 1028.5,1060C 1029.62,1060.25 1030.62,1060.75 1031.5,1061.5C 1024.8,1060.78 1018.64,1062.45 1013,1066.5C 1010.08,1064.13 1007.08,1064.13 1004,1066.5C 1003.23,1066.36 1002.56,1066.02 1002,1065.5C 1001.75,1066.62 1001.25,1067.62 1000.5,1068.5C 997.439,1067.12 994.439,1066.12 991.5,1065.5C 988.242,1066.42 984.909,1066.75 981.5,1066.5C 981.649,1065.45 981.483,1064.45 981,1063.5C 978.362,1063.25 975.696,1063.91 973,1065.5C 971.084,1063.37 969.251,1061.03 967.5,1058.5C 965.574,1057.94 963.574,1057.77 961.5,1058C 960.167,1057 960.167,1056 961.5,1055C 960.069,1054.53 958.903,1053.7 958,1052.5C 957.586,1052.96 957.086,1053.29 956.5,1053.5C 955.534,1051.6 955.201,1049.6 955.5,1047.5C 954.448,1047.65 953.448,1047.48 952.5,1047C 949.036,1041.7 945.036,1036.87 940.5,1032.5C 939.308,1030.26 938.308,1027.93 937.5,1025.5C 934.237,1023.74 931.403,1021.41 929,1018.5C 928.667,1018.83 928.333,1019.17 928,1019.5C 926.675,1014.17 924.175,1009.5 920.5,1005.5C 921.42,1003.03 920.42,1001.36 917.5,1000.5C 918.025,999.808 918.692,999.308 919.5,999C 915.613,993.954 911.947,988.787 908.5,983.5C 909.615,982.402 909.615,981.235 908.5,980C 908.905,979.055 909.572,978.388 910.5,978C 908.408,977.047 908.075,975.714 909.5,974C 907.655,972.577 905.655,971.41 903.5,970.5C 905.045,969.548 906.712,969.215 908.5,969.5C 908.702,967.011 908.202,964.677 907,962.5C 902.675,963.948 901.842,962.948 904.5,959.5C 901.985,958.8 901.318,957.467 902.5,955.5C 899.942,953.88 899.942,952.38 902.5,951C 899.284,947.682 898.951,944.182 901.5,940.5C 899.297,937.523 898.963,934.356 900.5,931C 899.572,930.612 898.905,929.945 898.5,929C 898.607,925.398 898.607,921.731 898.5,918C 900.576,916.756 901.576,914.923 901.5,912.5C 900.5,912.5 899.5,912.5 898.5,912.5C 898.449,910.43 899.115,908.597 900.5,907C 897.815,903.408 898.149,900.075 901.5,897C 899.284,893.327 899.951,889.994 903.5,887C 900.805,884.049 901.138,881.382 904.5,879C 903.572,878.612 902.905,877.945 902.5,877C 903.584,873.087 905.251,869.421 907.5,866C 907.043,865.586 906.709,865.086 906.5,864.5C 906.946,861.724 907.946,859.224 909.5,857C 909.043,856.586 908.709,856.086 908.5,855.5C 910.602,851.425 911.602,847.092 911.5,842.5C 913.592,842.439 915.092,841.439 916,839.5C 920.064,831.249 922.897,822.583 924.5,813.5C 929.264,810.69 932.098,806.357 933,800.5C 934.444,798.845 936.278,798.178 938.5,798.5C 938.5,797.5 938.5,796.5 938.5,795.5C 939.552,795.649 940.552,795.483 941.5,795C 944.382,791.407 947.382,787.907 950.5,784.5C 958.365,782.385 965.698,779.218 972.5,775C 976.027,774.855 979.36,774.022 982.5,772.5C 983.967,772.723 985.467,773.056 987,773.5C 988.849,772.439 990.849,771.773 993,771.5C 997.037,771.648 1001.04,771.648 1005,771.5C 1008.62,769.246 1012.46,768.913 1016.5,770.5C 1019.79,770.236 1022.79,769.236 1025.5,767.5C 1026.19,768.025 1026.69,768.692 1027,769.5C 1028.91,767.093 1030.91,767.093 1033,769.5C 1034.31,768.87 1035.14,767.87 1035.5,766.5 Z M 1006.5,824.5 C 1005,825.306 1003.34,825.972 1001.5,826.5C 998.875,825.62 996.542,826.287 994.5,828.5C 993.914,828.291 993.414,827.957 993,827.5C 988.92,828.3 984.753,828.8 980.5,829C 975.048,832.339 969.881,836.173 965,840.5C 962.896,845.092 960.229,849.425 957,853.5C 956.256,856.89 955.423,860.223 954.5,863.5C 951.203,863.329 950.869,863.995 953.5,865.5C 950.707,869.154 949.707,873.154 950.5,877.5C 949.066,881.079 947.4,884.579 945.5,888C 946.5,888.833 947.5,889.667 948.5,890.5C 947.337,892.285 946.67,894.285 946.5,896.5C 945.729,900.938 945.396,905.271 945.5,909.5C 946.5,910.167 947.5,910.833 948.5,911.5C 943.62,913.86 943.62,916.526 948.5,919.5C 947.675,920.386 946.675,920.719 945.5,920.5C 945.5,921.5 945.5,922.5 945.5,923.5C 947.359,923.461 948.692,924.294 949.5,926C 949.434,928.109 949.101,930.275 948.5,932.5C 950.656,934.787 950.989,937.287 949.5,940C 950.361,944.517 951.361,949.017 952.5,953.5C 952.41,955.228 952.077,956.894 951.5,958.5C 952.689,959.429 954.022,959.762 955.5,959.5C 955.67,960.822 955.337,961.989 954.5,963C 956.155,964.444 956.822,966.278 956.5,968.5C 957.675,968.281 958.675,968.614 959.5,969.5C 958.726,970.711 957.893,970.711 957,969.5C 956.667,971.934 957.834,972.934 960.5,972.5C 959.847,980.128 963.18,984.461 970.5,985.5C 968.785,988.899 969.285,991.899 972,994.5C 972.414,994.043 972.914,993.709 973.5,993.5C 977.101,996.491 981.101,997.157 985.5,995.5C 986.386,996.325 986.719,997.325 986.5,998.5C 988.167,998.5 989.833,998.5 991.5,998.5C 991.281,997.325 991.614,996.325 992.5,995.5C 994.245,995.476 996.079,995.81 998,996.5C 999.473,994.954 1001.31,993.954 1003.5,993.5C 1012.1,992.89 1019.43,989.557 1025.5,983.5C 1031.83,984.528 1035.83,981.862 1037.5,975.5C 1038.93,975.579 1040.26,975.246 1041.5,974.5C 1042.36,972.803 1043.7,971.637 1045.5,971C 1045.04,970.586 1044.71,970.086 1044.5,969.5C 1045.63,968.738 1046.79,968.071 1048,967.5C 1048.74,963.803 1050.9,961.47 1054.5,960.5C 1055.83,959.5 1055.83,958.5 1054.5,957.5C 1057.18,955.489 1059.51,953.156 1061.5,950.5C 1063.72,943.902 1066.06,937.402 1068.5,931C 1067.82,927.028 1068.15,923.028 1069.5,919C 1068.6,913.095 1068.6,907.262 1069.5,901.5C 1068.83,899.5 1068.17,897.5 1067.5,895.5C 1068.79,889.959 1068.13,884.626 1065.5,879.5C 1066.45,876.708 1066.45,874.208 1065.5,872C 1064.44,869.661 1063.11,867.495 1061.5,865.5C 1062.38,864.749 1063.38,864.249 1064.5,864C 1063.03,863.29 1062.36,862.124 1062.5,860.5C 1061.32,860.719 1060.32,860.386 1059.5,859.5C 1056.78,851.718 1052.78,844.718 1047.5,838.5C 1042.3,834.302 1036.97,830.136 1031.5,826C 1027.87,824.806 1024.03,824.306 1020,824.5C 1018.56,825.26 1017.06,825.926 1015.5,826.5C 1012.72,824.87 1009.72,824.203 1006.5,824.5 Z"/></g>
<g><path style="opacity:0.075" fill="#000000" d="M 1116.5,938.5 C 1118.34,938.639 1118.67,939.306 1117.5,940.5C 1116.7,940.043 1116.37,939.376 1116.5,938.5 Z"/></g>
<g><path style="opacity:0.68" fill="#000000" d="M 1710.5,1076.5 C 1714.6,1076.23 1718.6,1076.73 1722.5,1078C 1723.78,1080.4 1725.61,1082.24 1728,1083.5C 1736.91,1100.89 1746.58,1117.89 1757,1134.5C 1761.39,1138.06 1764.89,1142.39 1767.5,1147.5C 1771.97,1150.14 1776.3,1152.97 1780.5,1156C 1790.38,1159.1 1800.38,1158.77 1810.5,1155C 1820.09,1150.03 1829.42,1144.7 1838.5,1139C 1843.29,1136.95 1848.29,1135.45 1853.5,1134.5C 1853.66,1135.87 1853.49,1137.21 1853,1138.5C 1847.88,1145.62 1842.05,1152.12 1835.5,1158C 1825.58,1164.09 1814.92,1168.42 1803.5,1171C 1793.26,1172.27 1783.26,1171.27 1773.5,1168C 1762.21,1161.54 1753.88,1152.37 1748.5,1140.5C 1746.85,1139.35 1745.35,1138.02 1744,1136.5C 1736.23,1119.5 1727.9,1102.83 1719,1086.5C 1713.75,1084.66 1709.08,1085.66 1705,1089.5C 1701.03,1094.72 1697.03,1100.06 1693,1105.5C 1687.61,1114.58 1682.61,1123.91 1678,1133.5C 1673.98,1143.08 1669.48,1152.41 1664.5,1161.5C 1662.67,1165.31 1661.51,1169.31 1661,1173.5C 1660.17,1174.5 1659.33,1175.5 1658.5,1176.5C 1658.17,1176 1657.83,1175.5 1657.5,1175C 1658.62,1165.4 1661.79,1156.56 1667,1148.5C 1668.42,1143.35 1670.08,1138.35 1672,1133.5C 1675.96,1126.31 1679.63,1118.97 1683,1111.5C 1687.32,1105.54 1691.15,1099.2 1694.5,1092.5C 1698.88,1086.12 1704.22,1080.78 1710.5,1076.5 Z"/></g>
<g><path style="opacity:0.805" fill="#000000" d="M 1586.5,1387.5 C 1586.73,1382.77 1588.56,1378.77 1592,1375.5C 1593.01,1373.98 1593.51,1372.31 1593.5,1370.5C 1594.5,1370.5 1595.5,1370.5 1596.5,1370.5C 1597.68,1365.14 1600.18,1360.47 1604,1356.5C 1609.54,1345.28 1616.88,1335.28 1626,1326.5C 1627.33,1323.17 1629.16,1320.17 1631.5,1317.5C 1635.35,1313.82 1639.02,1309.98 1642.5,1306C 1646.99,1302.78 1651.99,1300.61 1657.5,1299.5C 1661.75,1300.3 1665.58,1301.97 1669,1304.5C 1675.36,1317.19 1680.36,1330.52 1684,1344.5C 1687.08,1351 1690.91,1357 1695.5,1362.5C 1703.95,1368.71 1713.29,1370.21 1723.5,1367C 1732.26,1364.64 1740.6,1361.3 1748.5,1357C 1758.86,1349.82 1769.53,1343.15 1780.5,1337C 1786.7,1330.14 1794.03,1324.81 1802.5,1321C 1807.85,1315.99 1813.52,1311.32 1819.5,1307C 1825.07,1304.31 1830.73,1303.97 1836.5,1306C 1839,1310.18 1839.84,1314.68 1839,1319.5C 1834.05,1323.73 1828.55,1327.06 1822.5,1329.5C 1821.83,1330.5 1821.17,1331.5 1820.5,1332.5C 1805.54,1342.6 1790.37,1352.6 1775,1362.5C 1768.82,1364.55 1763.32,1367.72 1758.5,1372C 1747.65,1376.46 1736.65,1380.46 1725.5,1384C 1718.1,1385.23 1710.77,1385.23 1703.5,1384C 1699.56,1381.19 1695.22,1379.19 1690.5,1378C 1682.72,1371.22 1676.89,1363.06 1673,1353.5C 1670.05,1339.02 1665.89,1325.02 1660.5,1311.5C 1659.4,1309.9 1657.9,1308.9 1656,1308.5C 1651.12,1310.36 1646.62,1312.86 1642.5,1316C 1632.93,1326.56 1623.76,1337.4 1615,1348.5C 1613.89,1350.04 1612.39,1350.7 1610.5,1350.5C 1610.28,1352.79 1609.61,1354.95 1608.5,1357C 1602.54,1363.75 1597.71,1371.25 1594,1379.5C 1591.92,1382.74 1589.42,1385.41 1586.5,1387.5 Z"/></g>
<g><path style="opacity:0.037" fill="#000000" d="M 1586.5,1387.5 C 1586.75,1389.83 1586.09,1391.83 1584.5,1393.5C 1584.17,1393 1583.83,1392.5 1583.5,1392C 1583.7,1389.82 1584.7,1388.32 1586.5,1387.5 Z"/></g>
<g><path style="opacity:0.823" fill="#000000" d="M 1826.5,1433.5 C 1832.36,1433.09 1837.86,1434.09 1843,1436.5C 1845.16,1441.18 1845,1445.68 1842.5,1450C 1827.8,1457.68 1813.13,1465.35 1798.5,1473C 1796.24,1477.59 1792.57,1480.26 1787.5,1481C 1778.96,1486.85 1770.29,1492.52 1761.5,1498C 1755.63,1501.06 1749.63,1503.73 1743.5,1506C 1742.83,1508 1741.5,1509.33 1739.5,1510C 1730.34,1513.53 1721.34,1517.19 1712.5,1521C 1705.82,1521.72 1699.15,1522.56 1692.5,1523.5C 1676.51,1521.65 1662.17,1515.82 1649.5,1506C 1645.83,1505.44 1642.49,1504.11 1639.5,1502C 1628.7,1499.01 1618.04,1498.34 1607.5,1500C 1601.79,1501.57 1596.29,1503.74 1591,1506.5C 1586.92,1510.42 1582.42,1513.75 1577.5,1516.5C 1570.08,1524.09 1563.58,1532.43 1558,1541.5C 1555.86,1546.26 1555.02,1551.26 1555.5,1556.5C 1553.55,1556.77 1552.05,1556.11 1551,1554.5C 1550.33,1551.5 1550.33,1548.5 1551,1545.5C 1559.85,1522.32 1575.35,1505.15 1597.5,1494C 1613.16,1487.93 1629.16,1486.93 1645.5,1491C 1656.76,1496.47 1668.09,1501.63 1679.5,1506.5C 1685.64,1508.07 1691.81,1508.4 1698,1507.5C 1705.84,1504.84 1713.67,1502 1721.5,1499C 1726.93,1494.62 1732.93,1491.28 1739.5,1489C 1752.75,1480.37 1765.92,1471.54 1779,1462.5C 1784.95,1460.23 1790.12,1456.73 1794.5,1452C 1800.69,1449.08 1806.36,1445.41 1811.5,1441C 1816.91,1439.15 1821.91,1436.65 1826.5,1433.5 Z"/></g>
</svg>
